<svg viewBox="0 0 50 50" xmlns="http://www.w3.org/2000/svg"><path d="M25,8c-9.389,0 -17,7.611 -17,17c0,9.389 7.611,17 17,17c9.389,0 17,-7.611 17,-17c0,-9.389 -7.611,-17 -17,-17ZM25,37.75c-7.03,0 -12.75,-5.72 -12.75,-12.75c0,-7.03 5.72,-12.75 12.75,-12.75c7.03,0 12.75,5.72 12.75,12.75c0,7.03 -5.72,12.75 -12.75,12.75ZM29.271,25l-3.209,0c-0.586,0 -1.062,-0.476 -1.062,-1.063l0,-3.208c0,-1.162 -0.942,-2.104 -2.104,-2.104l-0.042,0c-1.162,0 -2.104,0.942 -2.104,2.104l0,6.417c0,1.162 0.942,2.104 2.104,2.104l6.417,0c1.162,0 2.104,-0.942 2.104,-2.104l0,-0.042c0,-1.162 -0.942,-2.104 -2.104,-2.104Z" /></svg>
