<svg xmlns="http://www.w3.org/2000/svg" viewBox="0 0 612 792"><path d="M268,286.5c0-11.4-9.4-23.2-23.2-23.2c-6.2,0-11.5,2.2-16,6.7L113.3,385.5c-3.8,3.8-7.7,8.5-7.7,17s3.2,12.5,7.5,16.8
	l115.7,115.7c4.5,4.5,9.8,6.7,16,6.7c13.8,0,23.2-11.8,23.2-23.2c0-6-2.2-11.4-6.7-16l-100-100l100-100
	C265.9,298,268,292.5,268,286.5z M518.3,385.5L402.8,270.1c-4.5-4.5-9.8-6.7-16-6.7c-13.8,0-23.2,11.8-23.2,23.2
	c0,6,2.2,11.4,6.7,16l100,100l-100,100c-4.6,4.6-6.7,10-6.7,16c0,11.4,9.4,23.2,23.2,23.2c6.2,0,11.5-2.2,16-6.7l115.7-115.7
	c4.3-4.3,7.5-8.3,7.5-16.8C526,394,522.1,389.3,518.3,385.5L518.3,385.5z"/>
</svg>
