<?xml version="1.0" encoding="UTF-8" standalone="no"?><!DOCTYPE svg PUBLIC "-//W3C//DTD SVG 1.1//EN" "http://www.w3.org/Graphics/SVG/1.1/DTD/svg11.dtd"><svg width="100%" height="100%" viewBox="0 0 25 24" version="1.1" xmlns="http://www.w3.org/2000/svg" xmlns:xlink="http://www.w3.org/1999/xlink" xml:space="preserve" style="fill-rule:evenodd;clip-rule:evenodd;stroke-linejoin:round;stroke-miterlimit:1.41421;"><path id="coding" d="M4.636,15.442l0.018,0.017c0.02,0.027 0.03,0.059 0.055,0.083c0.033,0.033 0.073,0.05 0.111,0.074l2.292,2.176c0.263,0.265 0.69,0.265 0.953,0c0.263,-0.265 0.263,-0.694 0,-0.958l-1.843,-1.855l1.822,-1.834c0.263,-0.264 0.263,-0.694 0,-0.959c-0.263,-0.264 -0.69,-0.264 -0.953,0l-2.382,2.397c-0.21,0.212 -0.245,0.525 -0.119,0.779c-0.002,0.019 0.01,0.043 0.046,0.08ZM15.959,17.792c0.263,0.265 0.689,0.265 0.953,0l2.292,-2.176c0.037,-0.025 0.078,-0.041 0.111,-0.074c0.024,-0.024 0.035,-0.056 0.054,-0.083l0.018,-0.017c0.037,-0.037 0.048,-0.061 0.047,-0.08c0.125,-0.254 0.091,-0.567 -0.119,-0.779l-2.382,-2.397c-0.264,-0.264 -0.69,-0.264 -0.953,0c-0.263,0.265 -0.263,0.695 0,0.959l1.822,1.834l-1.843,1.855c-0.263,0.264 -0.263,0.693 0,0.958ZM3.75,3c-0.414,0 -0.75,0.336 -0.75,0.75c0,0.414 0.336,0.75 0.75,0.75c0.414,0 0.75,-0.336 0.75,-0.75c0,-0.414 -0.336,-0.75 -0.75,-0.75ZM21.75,0l-19.5,0c-1.243,0 -2.25,1.007 -2.25,2.25l0,19.5c0,1.243 1.007,2.25 2.25,2.25l19.5,0c1.243,0 2.25,-1.007 2.25,-2.25l0,-19.5c0,-1.243 -1.007,-2.25 -2.25,-2.25ZM22.5,21c0,0.828 -0.672,1.5 -1.5,1.5l-18,0c-0.828,0 -1.5,-0.672 -1.5,-1.5l0,-13.5l21,0l0,13.5ZM22.5,6l-21,0l0,-3c0,-0.828 0.672,-1.5 1.5,-1.5l18,0c0.828,0 1.5,0.672 1.5,1.5l0,3ZM6.75,3c-0.414,0 -0.75,0.336 -0.75,0.75c0,0.414 0.336,0.75 0.75,0.75c0.414,0 0.75,-0.336 0.75,-0.75c0,-0.414 -0.336,-0.75 -0.75,-0.75ZM9.75,3c-0.414,0 -0.75,0.336 -0.75,0.75c0,0.414 0.336,0.75 0.75,0.75c0.414,0 0.75,-0.336 0.75,-0.75c0,-0.414 -0.336,-0.75 -0.75,-0.75ZM10.982,17.786l3.054,-4.554c0.282,-0.281 0.282,-0.737 0,-1.019c-0.281,-0.281 -0.737,-0.281 -1.018,0l-3.054,4.555c-0.282,0.281 -0.282,0.737 0,1.018c0.281,0.282 0.737,0.282 1.018,0Z" style="fill-rule:nonzero;"/></svg>
