<?xml version="1.0" encoding="UTF-8" standalone="no"?><!DOCTYPE svg PUBLIC "-//W3C//DTD SVG 1.1//EN" "http://www.w3.org/Graphics/SVG/1.1/DTD/svg11.dtd"><svg width="100%" height="100%" viewBox="0 0 25 25" version="1.1" xmlns="http://www.w3.org/2000/svg" xmlns:xlink="http://www.w3.org/1999/xlink" xml:space="preserve"><path id="music" d="M7.5,1.499l0,15.962c-0.796,-0.595 -1.846,-0.96 -3,-0.96c-2.485,0 -4.5,1.678 -4.5,3.749c0,2.071 2.015,3.75 4.5,3.75c2.177,0 3.993,-1.288 4.41,-3l0.09,0l0,-12.767l13.5,-1.514l0,8.492c-0.797,-0.596 -1.846,-0.961 -3,-0.961c-2.485,0 -4.5,1.679 -4.5,3.75c0,2.071 2.015,3.75 4.5,3.75c2.485,0 4.5,-1.679 4.5,-3.75l0,-18l-16.5,1.499ZM4.5,18c1.657,0 3,1.007 3,2.25c0,1.243 -1.343,2.25 -3,2.25c-1.657,0 -3,-1.007 -3,-2.25c0,-1.243 1.343,-2.25 3,-2.25ZM19.5,15.75c1.657,0 3,1.007 3,2.25c0,1.243 -1.343,2.25 -3,2.25c-1.657,0 -3,-1.007 -3,-2.25c0,-1.243 1.343,-2.25 3,-2.25ZM9,3.187l13.5,-1.523l0,3.398l-13.5,1.524l0,-3.399Z" /></svg>
