<?xml version="1.0" encoding="UTF-8" standalone="no"?><!DOCTYPE svg PUBLIC "-//W3C//DTD SVG 1.1//EN" "http://www.w3.org/Graphics/SVG/1.1/DTD/svg11.dtd"><svg width="100%" height="100%" viewBox="0 0 24 25" version="1.1" xmlns="http://www.w3.org/2000/svg" xmlns:xlink="http://www.w3.org/1999/xlink" xml:space="preserve"><path id="pen" d="M16.211,1.335l-13.832,13.842c-1.571,1.573 -2.942,7.796 -2.146,8.593c0.829,0.83 7.009,-0.572 8.582,-2.148l13.832,-13.843c1.777,-1.779 1.777,-4.665 0,-6.444c-1.777,-1.78 -4.659,-1.78 -6.436,0ZM3.916,15.758l11.205,-11.216l1.641,1.641l-10.884,10.885l-0.405,-0.394c-0.459,-0.447 -1.019,-0.728 -1.608,-0.857c0.017,-0.018 0.034,-0.043 0.051,-0.059ZM1.57,22.433c-0.351,-0.352 0.512,-3.373 1.471,-5.308c0.676,0.174 1.324,0.503 1.86,1.025l0.63,0.612c0.663,0.645 1.053,1.452 1.17,2.278c-1.941,0.92 -4.808,1.717 -5.131,1.393ZM8.236,20.084c-0.064,0.064 -0.143,0.129 -0.227,0.194c-0.05,-0.755 -0.367,-1.495 -0.961,-2.073l-0.095,-0.091l10.87,-10.87l1.621,1.621l-11.208,11.219ZM21.585,6.722l-1.08,1.082l-4.324,-4.323l1.085,-1.085c1.192,-1.195 3.126,-1.195 4.319,0c1.193,1.195 1.193,3.132 0,4.326Z"/></svg>
