<?xml version="1.0" encoding="UTF-8" standalone="no"?><!DOCTYPE svg PUBLIC "-//W3C//DTD SVG 1.1//EN" "http://www.w3.org/Graphics/SVG/1.1/DTD/svg11.dtd"><svg width="100%" height="100%" viewBox="0 0 25 20" version="1.1" xmlns="http://www.w3.org/2000/svg" xmlns:xlink="http://www.w3.org/1999/xlink" xml:space="preserve" style="fill-rule:evenodd;clip-rule:evenodd;stroke-linejoin:round;stroke-miterlimit:1.41421;"><path id="camera" d="M21.75,19.5l-19.5,0c-1.243,0 -2.25,-1.007 -2.25,-2.25l0,-12c0,-1.243 1.007,-2.25 2.25,-2.25c0,0 0.378,0 2.969,0c0.71,0 2.223,-3 3.015,-3c1.944,0 5.565,0 7.51,0c0.785,0 2.277,2.94 3.018,3l2.988,0c1.254,0.011 2.25,1.014 2.25,2.25l0,12c0,1.236 -0.996,2.239 -2.25,2.25ZM14.963,1.5l-5.986,0c-0.803,0.03 -2.284,2.96 -2.994,3l-2.983,0c-0.835,0.007 -1.5,0.676 -1.5,1.5l0,10.5c0,0.828 0.672,1.5 1.5,1.5l18,0c0.832,-0.003 1.5,-0.674 1.5,-1.5l0,-10.5c0,-0.826 -0.668,-1.497 -1.5,-1.5l-3.046,0c-0.7,-0.02 -2.187,-2.97 -2.991,-3ZM12,5.25c2.899,0 5.25,2.35 5.25,5.25c0,2.899 -2.351,5.25 -5.25,5.25c-2.9,0 -5.25,-2.351 -5.25,-5.25c0,-2.9 2.35,-5.25 5.25,-5.25ZM12,6.742c2.076,0 3.758,1.682 3.758,3.758c0,2.076 -1.682,3.758 -3.758,3.758c-2.076,0 -3.758,-1.682 -3.758,-3.758c0,-2.076 1.682,-3.758 3.758,-3.758Z" /></svg>
