<svg xmlns="http://www.w3.org/2000/svg" viewBox="0 0 50 50"><path stroke-width="0" fill="currentColor" d="M14.727,31.533c-2.056,0 -3.727,1.678 -3.727,3.722c0,2.054 1.671,3.712 3.727,3.712c2.063,0 3.732,-1.658 3.732,-3.712c0,-2.044 -1.669,-3.722 -3.732,-3.722Z"/><path stroke-width="0" fill="currentColor" d="M11.004,20.513l0,5.367c3.494,0 6.78,1.367 9.256,3.843c2.47,2.469 3.836,5.77 3.836,9.277l5.389,0c0,-10.195 -8.293,-18.487 -18.481,-18.487l0,0Z"/><path stroke-width="0" fill="currentColor" d="M11.01,11l0,5.369c12.464,0 22.607,10.154 22.607,22.631l5.383,0c0,-15.435 -12.558,-28 -27.99,-28l0,0Z"/></svg>
