<svg viewBox="0 0 50 50" xmlns="http://www.w3.org/2000/svg" style="fill-rule:evenodd;clip-rule:evenodd;stroke-linejoin:round;stroke-miterlimit:1.41421;"><path d="M25.428,40.004c-0.492,0 -0.984,-0.188 -1.36,-0.563l-13.493,-13.494c-0.361,-0.361 -0.564,-0.851 -0.564,-1.362l0,-12.664c0,-1.063 0.862,-1.925 1.924,-1.925l12.664,0c0.511,0 1.002,0.204 1.362,0.566l13.466,13.519c0.75,0.753 0.749,1.97 -0.002,2.722l-12.638,12.638l-1.359,0.563ZM23.842,13.747l10.984,11.028c0.365,0.366 0.365,0.959 -0.001,1.325l-8.735,8.736c-0.366,0.366 -0.959,0.366 -1.324,0l-11.007,-11.008l0,-9.143c0,-0.518 0.419,-0.938 0.936,-0.938l9.147,0ZM23.126,20.311c0,1.554 -1.258,2.814 -2.81,2.814c-1.552,0 -2.81,-1.26 -2.81,-2.814c0,-1.553 1.258,-2.813 2.81,-2.813c1.552,0 2.81,1.26 2.81,2.813Z" /></svg>
