<?xml version="1.0" encoding="UTF-8" standalone="no"?><!DOCTYPE svg PUBLIC "-//W3C//DTD SVG 1.1//EN" "http://www.w3.org/Graphics/SVG/1.1/DTD/svg11.dtd"><svg width="100%" height="100%" viewBox="0 0 25 24" version="1.1" xmlns="http://www.w3.org/2000/svg" xmlns:xlink="http://www.w3.org/1999/xlink" xml:space="preserve"><path id="video" d="M21.75,0l-19.5,0c-1.243,0 -2.25,1.007 -2.25,2.25l0,19.5c0,1.243 1.007,2.25 2.25,2.25l19.5,0c1.243,0 2.25,-1.007 2.25,-2.25l0,-19.5c0,-1.243 -1.007,-2.25 -2.25,-2.25ZM4.5,22.5l-1.5,0c-0.828,0 -1.5,-0.672 -1.5,-1.5l0,-1.5l3,0l0,3ZM4.5,18l-3,0l0,-3l3,0l0,3ZM4.5,13.5l-3,0l0,-3l3,0l0,3ZM4.5,9l-3,0l0,-3l3,0l0,3ZM4.5,4.5l-3,0l0,-1.5c0,-0.828 0.672,-1.5 1.5,-1.5l1.5,0l0,3ZM18,22.5l-12,0l0,-21l12,0l0,21ZM22.5,21c0,0.828 -0.672,1.5 -1.5,1.5l-1.5,0l0,-3l3,0l0,1.5ZM22.5,18l-3,0l0,-3l3,0l0,3ZM22.5,13.5l-3,0l0,-3l3,0l0,3ZM22.5,9l-3,0l0,-3l3,0l0,3ZM22.5,4.5l-3,0l0,-3l1.5,0c0.828,0 1.5,0.672 1.5,1.5l0,1.5ZM10.455,15.666l4.253,-2.829c0.455,-0.272 0.289,-0.711 0.008,-0.877l-4.261,-2.871c-0.358,-0.229 -0.71,-0.045 -0.71,0.411l0,5.756c0,0.455 0.352,0.64 0.71,0.41Z" /></svg>
