<svg xmlns="http://www.w3.org/2000/svg" width="24" height="24" viewBox="0 0 24 24" fill="none" stroke="currentcolor" stroke-linecap="round" stroke-linejoin="round" stroke-width="2">
    <path d="M20.998,6.971c0.242,0.664 0.371,1.389 0.371,2.144c0,3.578 -2.905,6.484 -6.484,6.484c-0.826,0 -1.561,-0.099 -2.288,-0.382l-5.721,5.722c0,0 -1.863,1.188 -3.433,-0.382c-1.57,-1.57 -0.382,-3.433 -0.382,-3.433l5.722,-5.721c-0.283,-0.727 -0.382,-1.462 -0.382,-2.288c0,-3.579 2.906,-6.484 6.484,-6.484c0.787,0 1.541,0.14 2.234,0.403l-4.308,4.308l0.531,3.315l3.316,0.532l4.34,-4.218Z"/>
</svg>
