<svg xmlns="http://www.w3.org/2000/svg" width="772.557" height="268.176" viewBox="0.5 0.5 772.557 268.176"><path fill="#808285" d="M360.021 149.835c0 11.977 0 21.835.62 27.075.373 3.618 1.122 6.364 4.87 6.864 1.748.246 4.488.493 5.615.493.75 0 .997.378.997.752 0 .621-.63.997-1.999.997-6.864 0-14.721-.374-15.342-.374-.634 0-8.488.374-12.229.374-1.375 0-1.993-.25-1.993-.997 0-.374.244-.752.995-.752 1.128 0 2.616-.247 3.741-.493 2.497-.5 3.12-3.246 3.619-6.864.625-5.239.625-15.099.625-27.075v-52.77l-18.466.246c-7.736.125-10.726.998-12.727 3.994-1.375 2.118-1.741 2.99-2.118 3.865-.376 1.001-.755 1.248-1.246 1.248-.377 0-.624-.372-.624-1.122 0-1.25 2.49-11.975 2.744-12.973.249-.749.745-2.374 1.244-2.374.878 0 2.124 1.25 5.492 1.495 3.618.375 8.356.625 9.854.625h46.79c3.989 0 6.859-.25 8.855-.625 1.873-.245 2.994-.621 3.498-.621.621 0 .621.749.621 1.5 0 3.739-.377 12.35-.377 13.722 0 1.125-.376 1.622-.871 1.622-.626 0-.877-.375-.997-2.121l-.131-1.376c-.37-3.742-3.365-6.61-15.346-6.859l-15.714-.246v52.77zm55.262-3.742c0 18.217 4.732 26.95 10.844 32.813 8.864 8.361 21.467 8.858 25.707 8.858 7.359 0 16.717-1.247 25.7-9.232 9.979-8.858 11.479-23.828 11.479-37.304v-13.352c0-19.458 0-22.956.245-26.95.253-4.368 1.246-6.363 4.617-7.113 1.502-.247 2.25-.369 3.117-.369.5 0 .998-.25.998-.754 0-.742-.617-.995-1.994-.995-3.745 0-9.604.375-10.473.375-.758 0-7.617-.375-13.233-.375-1.368 0-1.995.253-1.995.995 0 .504.499.754 1 .754 1.12 0 3.242.122 4.238.369 4.119.875 5.119 2.872 5.369 7.113.244 3.994.244 7.492.244 26.95v15.598c0 12.852-1.494 23.458-7.234 30.567-4.487 5.37-11.977 8.986-19.587 8.986-7.108 0-12.723-1.132-18.837-6.867-5.359-5.111-9.361-12.851-9.361-30.817v-17.466c0-19.457 0-22.956.258-26.949.246-4.368 1.243-6.613 4.611-7.114 1.496-.247 2.248-.368 3.118-.368.504 0 1.001-.25 1.001-.754 0-.742-.622-.995-1.993-.995-3.751 0-11.229.374-12.349.374-1.134 0-8.743-.374-14.358-.374-1.37 0-1.988.253-1.988.995 0 .504.493.754.994.754 1.122 0 3.24.121 4.237.368 4.117.876 5.127 2.873 5.367 7.114.258 3.993.258 7.492.258 26.949v18.216zm107.686 3.742c0 11.977 0 21.831-.624 27.075-.499 3.618-1.122 6.364-3.62 6.864-1.119.246-2.616.493-3.741.493-.748 0-.99.378-.99.752 0 .747.612.997 1.987.997 3.742 0 11.604-.374 11.732-.374.621 0 8.482.374 15.346.374 1.365 0 1.994-.374 1.994-.997 0-.374-.253-.752-.998-.752-1.125 0-3.873-.247-5.614-.493-3.742-.5-4.494-3.246-4.867-6.864-.621-5.242-.621-15.099-.621-27.075v-2.993c0-.621.25-1 .872-1l15.346.249c.746 0 1.123.25 1.617.75 2.5 3.246 8.352 11.599 13.602 18.466 7.113 9.354 11.479 15.463 16.846 18.341 3.24 1.739 6.367 2.369 13.349 2.369h8.863c2.241 0 2.986-.25 2.986-.997 0-.374-.498-.752-1.115-.752-.749 0-2.5 0-4.871-.375-3.117-.496-8.483-1.867-15.22-8.979-7.233-7.736-15.721-18.838-25.95-31.94 11.229-10.354 15.096-19.588 15.096-28.82 0-8.609-5.49-14.724-8.605-16.965-6.625-4.743-14.979-5.494-22.835-5.494-3.873 0-13.354.375-14.722.375-.624 0-8.486-.375-14.098-.375-1.372 0-1.997.25-1.997.996 0 .504.498.751.996.751 1.123 0 3.246.125 4.248.37 4.114.876 5.109 2.874 5.357 7.114.251 3.994.251 7.493.251 26.95v21.959zm9.984-51.898c0-.748.371-1.251.994-1.499 1.248-.376 4.609-.75 8.359-.75 13.353 0 21.582 9.358 21.582 24.952 0 9.482-3.244 16.22-7.612 19.214-2.865 1.999-6.357 2.372-9.354 2.372-5.489 0-11.229-.872-13.099-1.996-.621-.375-.871-.876-.871-1.496l.001-40.797zm91.394 11.351c3.992 4.491 18.096 20.21 32.563 35.805 13.221 14.226 31.188 32.563 32.558 33.813 6.614 6.611 8.111 7.983 9.118 7.983.869 0 1.118-.625 1.118-8.858l.25-73.112c0-7.483.496-10.232 4.604-11.105 1.506-.372 2.381-.372 3.003-.372.872 0 1.372-.374 1.372-.872 0-.749-.873-.876-2.247-.876-5.113 0-9.229.375-10.604.375-1.368 0-7.358-.375-12.972-.375-1.494 0-2.497.125-2.497.876 0 .495.127.872 1.003.872.994 0 3.861.125 6.11.624 3.869.999 4.734 3.743 4.868 11.855l1.365 63.375c-3.994-4.112-17.585-19.336-29.943-32.561-19.214-20.584-37.801-40.674-39.673-42.79-1.247-1.255-3.367-3.995-4.371-3.995-.996 0-1.364 1.374-1.364 6.237l-.136 71.487c0 11.36-.619 14.976-3.73 15.847-1.88.618-4.123.747-5.119.747-.622 0-.995.25-.995.752 0 .87.744.998 1.989.998 5.618 0 10.851-.375 11.979-.375 1.121 0 6.109.375 13.228.375 1.491 0 2.25-.25 2.25-.998 0-.502-.375-.752-1-.752-1.128 0-3.873-.128-6.24-.747-3.374-1.004-4.618-4.243-4.874-14.469l-1.613-59.764zm102.549 75.109c5.115 2.493 10.85 3.367 16.716 3.367 6.73 0 13.47-1.5 18.831-5.245 8.615-6.108 10.613-15.585 10.613-20.706 0-9.98-3.489-17.713-18.22-29.317l-3.493-2.747c-11.977-9.354-15.223-13.848-15.223-20.959 0-9.109 6.741-14.475 15.348-14.475 11.477 0 14.846 5.241 15.602 6.613.741 1.377 1.496 4.743 1.621 6.242.119.994.247 1.619.994 1.619.628 0 .875-.876.875-2.869 0-8.484.5-12.599.5-13.23 0-.619-.25-.87-1.25-.87s-2-.125-4.365-.62c-3.121-.751-6.736-1.25-11.603-1.25-15.848 0-25.828 9.105-25.828 22.46 0 8.48 2.99 16.217 16.219 27.074l5.614 4.616c10.732 8.858 14.347 13.847 14.347 22.456 0 7.986-5.859 16.592-17.836 16.592-8.36 0-16.593-3.496-18.468-12.723-.377-1.75-.377-3.49-.377-4.615 0-1-.125-1.378-.865-1.378-.628 0-.881.621-1.004 1.999-.118 1.993-.619 6.984-.619 13.221.001 3.376.121 3.868 1.871 4.745"/><path fill="#50748A" d="M134.589.5C60.538.5.5 60.534.5 134.593c0 74.052 60.032 134.083 134.089 134.083 74.052 0 134.088-60.031 134.088-134.083C268.672 60.534 208.641.502 134.589.5zM80.136 146.708c-8.678 9.677-26.109 8.183-38.943-3.324-4.957-4.444-8.49-9.747-10.478-15.127-2.758-7.041-8.431-25.452-1.358-44.063 1.836-5.421 5.215-10.802 10.038-15.377 12.493-11.864 29.88-13.847 38.83-4.424 8.95 9.421 6.074 26.681-6.427 38.553a42.003 42.003 0 0 1-2.852 2.472 40.861 40.861 0 0 1 3.681 2.938c12.825 11.509 16.185 28.684 7.509 38.352zm6.162-32.017a49.526 49.526 0 0 0-4.257-5.22 47.717 47.717 0 0 0-3.999-3.81 47.846 47.846 0 0 0 3.103-3.197 52.148 52.148 0 0 0 5.669-7.761c.104 0 .203-.009.314-.009h34.745a.375.375 0 0 0 .04.087c4.377.52 7.799 4.915 7.799 10.264 0 .181-.018.35-.026.524l.013.027v72.551c.014-.042.027-.071.04-.107v19.81l-20.365-21.599v-61.533H87.13c-.285 0-.554-.011-.832-.027zm40.632 131.748c-1.876 2.416-4.31 3.631-7.281 3.631-3.022 0-5.479-1.225-7.386-3.68-1.901-2.449-2.847-6.158-2.847-11.111v-31.892a31.852 31.852 0 0 1-.045-1.633v-7.337l20.365 3.743v37.117c.002 5.008-.93 8.729-2.806 11.162zm54.427-131.779h-22.236v87.038c0 .56-.019 1.102-.047 1.633v31.883c0 4.962-.96 8.669-2.854 11.118-1.903 2.452-4.359 3.672-7.377 3.672-2.98 0-5.412-1.211-7.277-3.629-1.888-2.432-2.817-6.152-2.817-11.161V177.98c.016.031.029.074.042.109V105.54c0-.009.005-.016.005-.024-.005-.176-.018-.348-.018-.526 0-5.35 3.426-9.747 7.803-10.269.005-.027.019-.054.031-.087h34.743c.114 0 .219.016.325.016a51.3 51.3 0 0 0 5.66 7.752 48.61 48.61 0 0 0 3.099 3.199 47.796 47.796 0 0 0-4 3.812 51.575 51.575 0 0 0-4.257 5.22c-.267.012-.541.027-.825.027zm56.416 13.544c-1.983 5.376-5.521 10.67-10.479 15.123-12.823 11.507-30.259 12.997-38.935 3.324-8.685-9.673-5.325-26.846 7.502-38.354a41.638 41.638 0 0 1 3.681-2.945 42.33 42.33 0 0 1-2.859-2.467c-12.495-11.864-15.37-29.126-6.418-38.551 8.945-9.425 26.332-7.444 38.832 4.421.252.241.486.493.729.736L210.49 89.999l28.833-5.3c6.746 18.417 1.183 36.531-1.55 43.505z"/><path fill="#E28432" d="M268.359 71.491l-39.566 7.272 27.827-29.512 11.739 22.24zM72.6 179.719l39.566 7.273-27.825-29.512L72.6 179.719z"/></svg>