<svg id="Layer_1" data-name="Layer 1" xmlns="http://www.w3.org/2000/svg" viewBox="0 0 164.07 41.36"><defs><style>.cls-1{fill:#231f20}.cls-2{fill:#a9aaad}.cls-3{fill:#c42032}</style></defs><title>coh-logo</title><path class="cls-1" d="M48.88 25.68a6.62 6.62 0 0 0 .77.19.61.61 0 0 0 .32-.09.49.49 0 0 0 .21-.3h.25l.11 2.71h-.28a3.92 3.92 0 0 0-.63-1.3 2.41 2.41 0 0 0-2-.93 2.53 2.53 0 0 0-2.07 1 4.27 4.27 0 0 0-.8 2.75 3.76 3.76 0 0 0 .85 2.57 2.72 2.72 0 0 0 2.14 1 3.44 3.44 0 0 0 1.72-.45 5.06 5.06 0 0 0 1-.77l.22.22a4.09 4.09 0 0 1-1 .89 4.28 4.28 0 0 1-5.28-.59 4.08 4.08 0 0 1-1.05-2.87 4.17 4.17 0 0 1 1.11-3 4 4 0 0 1 3-1.25 4.94 4.94 0 0 1 1.34.19m4.41.84a4 4 0 0 1 5.48 0 4.08 4.08 0 0 1 1.3 3.12 4.05 4.05 0 0 1-1.25 3.12 3.83 3.83 0 0 1-2.7 1 3.76 3.76 0 0 1-2.81-1.15 4.14 4.14 0 0 1-1.14-3 4.1 4.1 0 0 1 1.21-3.09m.9 5.9a2.3 2.3 0 0 0 1.84.91 2.32 2.32 0 0 0 1.82-.89 4.32 4.32 0 0 0 .76-2.83 4.29 4.29 0 0 0-.76-2.85 2.34 2.34 0 0 0-1.87-.84 2.3 2.3 0 0 0-1.83.91 4.38 4.38 0 0 0-.75 2.82 4.38 4.38 0 0 0 .75 2.81m6.99.94a1.76 1.76 0 0 0 .86-.24c.13-.11.2-.39.2-.84v-5.36a1.26 1.26 0 0 0-.19-.84 1.42 1.42 0 0 0-.86-.24v-.22h3.4v.22a1.65 1.65 0 0 0-.89.22 1 1 0 0 0-.23.78v5.79a.61.61 0 0 0 .07.31.37.37 0 0 0 .3.14h.85a5.89 5.89 0 0 0 2.17-.26 2.78 2.78 0 0 0 1.09-1.35h.31l-.59 2.09h-6.49v-.22zm8 0a1.76 1.76 0 0 0 .86-.24c.13-.11.2-.39.2-.84v-5.36a1.26 1.26 0 0 0-.19-.84 1.45 1.45 0 0 0-.86-.24v-.22h3.4v.22a1.65 1.65 0 0 0-.89.22 1 1 0 0 0-.23.78v5.79a.62.62 0 0 0 .07.31.38.38 0 0 0 .3.14h.85a5.89 5.89 0 0 0 2.17-.26 2.77 2.77 0 0 0 1.1-1.35h.31l-.59 2.09h-6.54v-.22zm8 0a1.75 1.75 0 0 0 .86-.24c.13-.11.2-.39.2-.84v-5.36a1.26 1.26 0 0 0-.19-.84 1.44 1.44 0 0 0-.86-.24v-.22h6.4v1.72h-.31a1.7 1.7 0 0 0-.46-1 2.56 2.56 0 0 0-1.37-.23h-1.68c-.18 0-.29 0-.33.09a.58.58 0 0 0-.06.32v2.69h1.86a1.4 1.4 0 0 0 1-.23 1.94 1.94 0 0 0 .34-.92h.28v2.78h-.28a2 2 0 0 0-.35-.93 1.41 1.41 0 0 0-1-.23h-1.85v3c0 .24.07.38.23.42a7.68 7.68 0 0 0 1.36.06 4.54 4.54 0 0 0 1.81-.27 2.43 2.43 0 0 0 1-1.3h.33l-.55 2h-6.46v-.22zm13.66-7.7a5.59 5.59 0 0 0 .78.19.53.53 0 0 0 .37-.1.75.75 0 0 0 .19-.29h.26l.01 2.53h-.28a4.6 4.6 0 0 0-.77-1.31 2.44 2.44 0 0 0-1.84-.69 2.8 2.8 0 0 0-2 .88 4 4 0 0 0-.88 2.9 3.64 3.64 0 0 0 .88 2.6 2.85 2.85 0 0 0 2.16.94 3.73 3.73 0 0 0 .51 0 3 3 0 0 0 .56-.13 1.6 1.6 0 0 0 .54-.24.4.4 0 0 0 .11-.3v-2.01q0-.7-.2-.87a1.6 1.6 0 0 0-.86-.21v-.23h3.07v.23a1.15 1.15 0 0 0-.59.15 1 1 0 0 0-.25.78v2.37c0 .14-.35.33-1 .56a6.21 6.21 0 0 1-2 .35 4.44 4.44 0 0 1-3-1 3.8 3.8 0 0 1-1.34-3 4.2 4.2 0 0 1 1.06-2.88 4 4 0 0 1 3.11-1.32 5 5 0 0 1 1.38.19m3.55 7.61a1.76 1.76 0 0 0 .86-.24c.13-.11.2-.39.2-.84v-5.36a1.25 1.25 0 0 0-.19-.84 1.44 1.44 0 0 0-.86-.24v-.22h6.4v1.72h-.31a1.71 1.71 0 0 0-.46-1 2.55 2.55 0 0 0-1.36-.23H97c-.18 0-.29 0-.33.09a.58.58 0 0 0-.06.32v2.69h1.86a1.39 1.39 0 0 0 1-.23 1.92 1.92 0 0 0 .34-.92h.28v2.78h-.28a2 2 0 0 0-.35-.93 1.41 1.41 0 0 0-1-.23h-1.83v3c0 .24.07.38.23.42a7.67 7.67 0 0 0 1.36.06 4.56 4.56 0 0 0 1.81-.27 2.45 2.45 0 0 0 1-1.3h.33l-.55 2h-6.46v-.22zm12.31-7.47a1.7 1.7 0 0 1 2.31 0 1.91 1.91 0 0 1 0 2.61 1.62 1.62 0 0 1-1.14.44 1.58 1.58 0 0 1-1.18-.48 1.75 1.75 0 0 1-.48-1.27 1.72 1.72 0 0 1 .51-1.3m.38 2.49a1 1 0 0 0 1.54 0 1.82 1.82 0 0 0 .32-1.19 1.8 1.8 0 0 0-.32-1.2 1 1 0 0 0-.76-.37 1 1 0 0 0-.84.37 1.84 1.84 0 0 0-.32 1.19 1.84 1.84 0 0 0 .32 1.18m3 .42a.38.38 0 0 0 .45-.52v-2.2a.53.53 0 0 0-.08-.35.61.61 0 0 0-.36-.1v-.09h2.7v.73h-.14a.63.63 0 0 0-.2-.44 1.19 1.19 0 0 0-.57-.09h-.69a.17.17 0 0 0-.13 0 .22.22 0 0 0 0 .14V27h.74a.6.6 0 0 0 .41-.1.85.85 0 0 0 .14-.39h.12v1.17h-.12a.85.85 0 0 0-.15-.39.6.6 0 0 0-.41-.09h-.74v1.11a.5.5 0 0 0 .09.36.68.68 0 0 0 .37.1v.1H110v-.1zm6.13 4.58a1.61 1.61 0 0 0 .88-.26 1.62 1.62 0 0 0 .18-1v-5.18a1.23 1.23 0 0 0-.2-.84 1.44 1.44 0 0 0-.86-.24v-.23h3.34v.23a1.44 1.44 0 0 0-.86.24 1.25 1.25 0 0 0-.2.84v2.35H122v-2.35a1.25 1.25 0 0 0-.19-.84 1.44 1.44 0 0 0-.86-.24v-.23h3.34v.23a1.44 1.44 0 0 0-.86.24 1.25 1.25 0 0 0-.2.84v5.36a1.21 1.21 0 0 0 .2.84 1.57 1.57 0 0 0 .86.24v.22H121v-.22a1.54 1.54 0 0 0 .89-.26 1.66 1.66 0 0 0 .17-1v-2.3h-3.66v2.48a1.21 1.21 0 0 0 .2.84 1.51 1.51 0 0 0 .86.24v.22h-3.36v-.22zm9.24 0a1.76 1.76 0 0 0 .86-.24c.13-.11.2-.39.2-.84v-5.36a1.26 1.26 0 0 0-.19-.84 1.45 1.45 0 0 0-.86-.24v-.22h6.4v1.72h-.31a1.69 1.69 0 0 0-.46-1 2.56 2.56 0 0 0-1.36-.23H128c-.18 0-.28 0-.33.09a.58.58 0 0 0-.06.32v2.69h1.86a1.39 1.39 0 0 0 1-.23 1.94 1.94 0 0 0 .34-.92h.28v2.78h-.28a2 2 0 0 0-.35-.93 1.41 1.41 0 0 0-1-.23h-1.86v3q0 .36.23.42a7.64 7.64 0 0 0 1.36.06 4.55 4.55 0 0 0 1.81-.27 2.44 2.44 0 0 0 1.05-1.3h.33l-.55 2h-6.51v-.22zm8 .22v-.22A1 1 0 0 0 134 33a9.54 9.54 0 0 0 .8-1.63l2.51-5.91h.24l3 6.83a2.87 2.87 0 0 0 .48.84 1.13 1.13 0 0 0 .6.22v.22h-3.06v-.22a2.79 2.79 0 0 0 .68-.11c.1 0 .15-.15.15-.33a1.44 1.44 0 0 0-.06-.31 3.28 3.28 0 0 0-.16-.47l-.44-1.13h-3.17q-.47 1.19-.56 1.44a1.38 1.38 0 0 0-.09.41.43.43 0 0 0 .25.42 2.06 2.06 0 0 0 .57.1v.22h-2.39zm5.19-3.09l-1.38-3.32-1.39 3.32h2.77zm4.07 2.87a1.74 1.74 0 0 0 .86-.24c.13-.11.2-.39.2-.84v-5.36a1.25 1.25 0 0 0-.19-.84 1.44 1.44 0 0 0-.86-.24v-.22H146v.22a1.67 1.67 0 0 0-.89.22 1 1 0 0 0-.23.78v5.79a.61.61 0 0 0 .07.31.38.38 0 0 0 .3.14h.85a5.88 5.88 0 0 0 2.17-.26 2.78 2.78 0 0 0 1.1-1.35h.31l-.59 2.09h-6.49v-.22zm7-7.75h6.81l.07 2h-.29a2.45 2.45 0 0 0-.54-1.26 2.21 2.21 0 0 0-1.37-.29h-.67v6.17c0 .46.07.75.22.86a2 2 0 0 0 1 .22v.22h-3.51v-.22a1.67 1.67 0 0 0 1-.25 1.57 1.57 0 0 0 .19-1v-6h-.68a2.29 2.29 0 0 0-1.36.29 2.13 2.13 0 0 0-.55 1.26h-.29l.07-2zm7.92 7.75a1.6 1.6 0 0 0 .88-.26 1.62 1.62 0 0 0 .18-1v-5.18a1.23 1.23 0 0 0-.2-.84 1.43 1.43 0 0 0-.86-.24v-.23h3.34v.23a1.45 1.45 0 0 0-.86.24 1.23 1.23 0 0 0-.2.84v2.35h3.66v-2.35a1.26 1.26 0 0 0-.2-.84 1.44 1.44 0 0 0-.87-.24v-.23h3.34v.23a1.43 1.43 0 0 0-.86.24 1.23 1.23 0 0 0-.2.84v5.36a1.21 1.21 0 0 0 .2.84 1.56 1.56 0 0 0 .86.24v.22h-3.34v-.22a1.53 1.53 0 0 0 .88-.26 1.64 1.64 0 0 0 .18-1v-2.3h-3.66v2.48a1.21 1.21 0 0 0 .2.84 1.52 1.52 0 0 0 .86.24v.22h-3.34v-.22zM44.15 17.68v-1.89c0-.28-.09-.44-.38-.5a1.78 1.78 0 0 0-.3 0s-.07 0-.07-.05 0-.07.14-.07h1.87c.1 0 .14 0 .14.07s0 .05-.07.05h-.22c-.24 0-.31.19-.33.5s0 .53 0 1.89v1.23a2.7 2.7 0 0 0 .66 2.16 1.71 1.71 0 0 0 1.32.48 1.84 1.84 0 0 0 1.38-.63 3.4 3.4 0 0 0 .51-2.15v-2.98c0-.28-.09-.44-.38-.5a1.78 1.78 0 0 0-.3 0s-.07 0-.07-.05 0-.07.14-.07h1.67c.1 0 .14 0 .14.07s0 .05-.07.05a.78.78 0 0 0-.22 0c-.23 0-.31.19-.32.5s0 .53 0 1.89v.94a3.41 3.41 0 0 1-.81 2.62 2.56 2.56 0 0 1-1.8.65 2.7 2.7 0 0 1-1.8-.62 2.89 2.89 0 0 1-.76-2.3v-1.28zm9.11 2.89c0 .72.1.95.34 1a2 2 0 0 0 .44.05s.07 0 .07.05-.05.07-.16.07h-1.77c-.09 0-.14 0-.14-.07s0-.05.07-.05a1.33 1.33 0 0 0 .36-.05c.22-.06.26-.32.26-1.11v-5c0-.34 0-.44.1-.44s.22.19.31.28 1.44 1.56 2.79 3c.87.93 1.82 2 2.1 2.29l-.1-4.45c0-.57-.07-.76-.34-.83a2.44 2.44 0 0 0-.43 0c-.06 0-.07 0-.07-.06s.07-.06.18-.06h1.65c.1 0 .16 0 .16.06s0 .06-.1.06a.75.75 0 0 0-.21 0c-.29.06-.33.25-.33.78v5.13c0 .58 0 .62-.08.62s-.17-.1-.64-.56c-.1-.09-1.36-1.37-2.29-2.37s-2-2.2-2.29-2.51l.11 4.19zm9.89-1.35v1.9c0 .37.08.45.34.48h.39c.05 0 .07 0 .07.05s0 .07-.14.07h-1.94c-.1 0-.14 0-.14-.07s0-.05.07-.05a1.41 1.41 0 0 0 .26 0c.17 0 .22-.23.25-.48s0-1.06 0-1.9v-3.43c0-.28-.1-.45-.3-.49a1.17 1.17 0 0 0-.27 0s-.07 0-.07-.05 0-.07.14-.07h1.74c.1 0 .14 0 .14.07s0 .05-.07.05h-.22c-.24 0-.31.19-.32.5s0 .53 0 1.89v1.54zm6.11 1.47c.51-1.17 1.68-4.23 1.88-4.86a1.28 1.28 0 0 0 .08-.33.22.22 0 0 0-.11-.2 1 1 0 0 0-.33 0c-.05 0-.1 0-.1-.05s.05-.07.19-.07h1.54c.1 0 .15 0 .15.06s0 .06-.1.06a.78.78 0 0 0-.42.11c-.11.08-.25.23-.48.82l-1 2.38c-.54 1.28-.93 2.23-1.13 2.65s-.28.67-.37.67-.15-.12-.31-.54L66.61 16c-.19-.49-.32-.59-.63-.67a1.37 1.37 0 0 0-.33 0c-.05 0-.07 0-.07-.06s.09-.06.23-.06h1.81c.16 0 .24 0 .24.06s0 .06-.09.06a1.06 1.06 0 0 0-.33 0 .18.18 0 0 0-.11.18 3.32 3.32 0 0 0 .24.73l1.68 4.49zm5.69-3V15.8c0-.28-.08-.44-.37-.5a1.78 1.78 0 0 0-.3 0s-.07 0-.07-.05 0-.07.14-.07h3.5c.04 0 0 0 0 .08s0 .17-.07.41v.58c0 .11 0 .1-.06.1s-.07 0-.07-.12a.94.94 0 0 0-.05-.31c-.06-.14-.15-.24-.62-.3h-1.2c-.1 0-.05 0-.05.09V18c0 .06 0 .09.05.09h1.39c.2 0 .33 0 .41-.12s.1-.11.13-.11 0 0 0 .07 0 .2-.07.49 0 .5 0 .56 0 .17-.06.17-.06 0-.06-.08a.85.85 0 0 0 0-.29c0-.12-.11-.27-.46-.31s-1.1 0-1.25 0a.05.05 0 0 0-.06.06v2.27c0 .6.16.72 1 .72a2.55 2.55 0 0 0 .84-.09c.23-.1.33-.27.39-.63 0-.1 0-.13.08-.13s.05.07.05.13-.07.67-.11.85-.13.23-.47.23c-1.32 0-1.91-.06-2.16-.06h-.88c-.1 0-.14 0-.14-.07s0-.05.07-.05a1.37 1.37 0 0 0 .26 0c.18 0 .22-.23.25-.48s0-1.06 0-1.9v-1.64zm6.44 0V15.8c0-.28-.09-.44-.38-.5a1.67 1.67 0 0 0-.3 0s-.07 0-.07-.05 0-.07.14-.07h2a2.69 2.69 0 0 1 1.6.39 1.53 1.53 0 0 1 .62 1.15 2.7 2.7 0 0 1-1.06 2c.72.92 1.31 1.7 1.82 2.24a1.8 1.8 0 0 0 1.07.63 2.11 2.11 0 0 0 .34 0s.08 0 .08.05-.05.07-.21.07h-.62a1.8 1.8 0 0 1-.94-.17 4.59 4.59 0 0 1-1.18-1.29c-.37-.48-.78-1.07-1-1.3a.14.14 0 0 0-.11-.05h-1.08s-.06 0-.06.07v2.11c0 .37.08.45.34.48h.4c.05 0 .07 0 .07.05s0 .07-.14.07h-1.9c-.1 0-.14 0-.14-.07s0-.05.07-.05a1.29 1.29 0 0 0 .26 0c.18 0 .22-.23.26-.48s0-1.06 0-1.9v-1.5zm.7.76a.11.11 0 0 0 .06.1 2.38 2.38 0 0 0 .92.14 1.14 1.14 0 0 0 .66-.17 1.6 1.6 0 0 0 .54-1.35c0-1.09-.58-1.75-1.52-1.75a2.77 2.77 0 0 0-.59.05.11.11 0 0 0-.07.11v2.87zm6.36 3.21c-.12-.06-.13-.1-.13-.33v-.93c0-.14 0-.14.07-.14s.06 0 .06.1a1.56 1.56 0 0 0 0 .32 1.19 1.19 0 0 0 1.3.89A1.17 1.17 0 0 0 91 20.4c0-.6-.25-1-1-1.58l-.39-.33c-.93-.76-1.14-1.31-1.14-1.9A1.61 1.61 0 0 1 90.33 15a3.35 3.35 0 0 1 .81.09 1.41 1.41 0 0 0 .31 0c.07 0 .09 0 .09.06v.93c0 .14 0 .2-.06.2s-.06 0-.07-.11a1.58 1.58 0 0 0-.11-.44c-.05-.1-.29-.47-1.1-.47a1 1 0 0 0-1.08 1c0 .5.25.8 1.07 1.47l.25.19c1 .82 1.28 1.36 1.28 2.06a1.82 1.82 0 0 1-.74 1.45 2.3 2.3 0 0 1-1.32.37 2.64 2.64 0 0 1-1.17-.24m7.34-2.33v1.9c0 .37.08.45.34.48h.39c.05 0 .07 0 .07.05s0 .07-.14.07h-1.94c-.1 0-.14 0-.14-.07s0-.05.07-.05a1.4 1.4 0 0 0 .26 0c.18 0 .22-.23.25-.48s0-1.06 0-1.9v-3.44c0-.28-.1-.45-.29-.49a1.17 1.17 0 0 0-.27 0s-.07 0-.07-.05 0-.07.14-.07h1.75c.1 0 .14 0 .14.07s0 .05-.07.05h-.22c-.24 0-.31.19-.32.5s0 .53 0 1.89v1.54zm6.08 0v1.9c0 .37.08.45.34.48h.4c.05 0 .07 0 .07.05s0 .07-.14.07h-1.94c-.1 0-.14 0-.14-.07s0-.05.07-.05a1.36 1.36 0 0 0 .26 0c.18 0 .22-.23.25-.48s0-1.06 0-1.9v-3.7h-1.3c-.54 0-.75.07-.89.28a1.5 1.5 0 0 0-.15.27c0 .07-.06.09-.09.09s0 0 0-.08.18-.84.19-.91S99 15 99 15a1.64 1.64 0 0 0 .39.1h3.98a4.49 4.49 0 0 0 .62 0h.25v1.1c0 .13 0 .11-.06.11s-.06 0-.07-.15V16c0-.26-.24-.47-1.08-.48h-1.1v3.71zm6.45.27a1.87 1.87 0 0 0-.2-.92c-.06-.14-1.24-2.07-1.54-2.52a2.48 2.48 0 0 0-.6-.65.86.86 0 0 0-.38-.14s-.09 0-.09-.06 0-.06.11-.06h1.61c.1 0 .11 0 .11.06s-.05 0-.13.08a.18.18 0 0 0-.11.16.75.75 0 0 0 .11.34c.14.25 1.45 2.51 1.61 2.77.17-.37 1.28-2.28 1.46-2.57a.87.87 0 0 0 .15-.45c0-.12 0-.22-.14-.24s-.13 0-.13-.09.05-.05.14-.05h1.43c.06 0 .11 0 .11.05s0 .07-.11.07a.82.82 0 0 0-.4.12 1.64 1.64 0 0 0-.46.45 28 28 0 0 0-1.67 2.79 2.09 2.09 0 0 0-.13.88v1.63c0 .37.1.45.36.48h.39c.06 0 .07 0 .07.05s0 .07-.14.07h-1.94c-.1 0-.14 0-.14-.07s0-.05.07-.05a1.47 1.47 0 0 0 .26 0c.18 0 .25-.23.27-.48s0-.74 0-.87v-.78zm12.25-4.5a3.19 3.19 0 0 1 3.39 3.31 3.44 3.44 0 0 1-3.5 3.58 3.28 3.28 0 0 1-3.4-3.44 3.39 3.39 0 0 1 3.51-3.45m.18 6.54c.79 0 2.42-.46 2.42-3 0-2.1-1.28-3.23-2.66-3.23s-2.56 1-2.56 2.88 1.23 3.36 2.8 3.36m6.21-3.87v-1.89c0-.28-.09-.44-.38-.5a1.79 1.79 0 0 0-.3 0s-.07 0-.07-.05 0-.07.14-.07h3.16a2.15 2.15 0 0 0 .39 0c.05 0 .09-.05.12-.05s.05 0 .05.08 0 .17-.07.41v.58c0 .11 0 .1-.07.1s-.06 0-.06-.1a.9.9 0 0 0-.08-.33.67.67 0 0 0-.6-.28h-1.35c-.05 0-.08 0-.08.1V18s0 .08.06.08h1.52c.21 0 .32 0 .4-.16s.06-.09.1-.09 0 0 0 .07 0 .2-.07.49 0 .52 0 .59 0 .17-.06.17-.06 0-.06-.08a1.65 1.65 0 0 0-.05-.32.53.53 0 0 0-.46-.32h-1.32c-.15 0-.06 0-.06.08v2.65c0 .37.08.45.34.48h.4c.05 0 .07 0 .07.05s0 .07-.14.07h-1.94c-.1 0-.14 0-.14-.07s0-.05.07-.05a1.38 1.38 0 0 0 .26 0c.18 0 .22-.23.25-.48s0-1.06 0-1.9v-1.58zm9.71 0v-1.89c0-.28-.09-.44-.37-.5h-.3s-.07 0-.07-.05 0-.07.14-.07h1.87c.1 0 .14 0 .14.07s0 .05-.07.05h-.22c-.24 0-.31.19-.32.5s0 .53 0 1.89v1.23a2.7 2.7 0 0 0 .66 2.16 1.71 1.71 0 0 0 1.32.48 1.84 1.84 0 0 0 1.38-.63 3.41 3.41 0 0 0 .51-2.15v-2.98c0-.28-.09-.44-.38-.5a1.8 1.8 0 0 0-.3 0s-.07 0-.07-.05 0-.07.14-.07h1.66c.1 0 .14 0 .14.07s0 .05-.07.05a.78.78 0 0 0-.22 0c-.24 0-.31.19-.32.5s0 .53 0 1.89v.94a3.41 3.41 0 0 1-.81 2.62 2.56 2.56 0 0 1-1.8.65 2.7 2.7 0 0 1-1.8-.62 2.89 2.89 0 0 1-.76-2.3v-1.28zm10.74 1.54v1.9c0 .37.08.45.34.48h.4c.05 0 .07 0 .07.05s0 .07-.14.07h-1.94c-.1 0-.14 0-.14-.07s0-.05.07-.05a1.4 1.4 0 0 0 .26 0c.18 0 .22-.23.25-.48s0-1.06 0-1.9v-3.7h-1.3c-.54 0-.75.07-.89.28a1.5 1.5 0 0 0-.15.27c0 .07-.05.09-.09.09s0 0 0-.08.18-.84.19-.91.05-.17.09-.17a1.66 1.66 0 0 0 .39.1h3.97a4.56 4.56 0 0 0 .62 0h.24v1.1c0 .13 0 .11-.06.11s-.06 0-.07-.15V16c0-.26-.24-.47-1.08-.48h-1.1v3.71zm6.15-3.86c.1-.29.14-.34.19-.34s.09 0 .19.32 1.51 4 2 5.28c.31.78.57.92.75 1a1.11 1.11 0 0 0 .35.05c.05 0 .09 0 .09.05s-.08.07-.18.07h-1.37c-.17 0-.26 0-.26-.06s0-.05.06-.06.11-.1.05-.24l-.82-2.16a.07.07 0 0 0-.08-.05h-1.88a.09.09 0 0 0-.09.07l-.52 1.55a1.82 1.82 0 0 0-.12.59c0 .17.18.25.33.25h.09c.06 0 .09 0 .09.05s-.05.07-.13.07h-1.68c-.11 0-.17 0-.17-.07s0-.05.08-.05h.26c.4-.05.58-.39.74-.82l2-5.44zm.91 3.51v-.06l-.83-2.37c0-.13-.09-.13-.13 0l-.77 2.37v.06h1.67zm10.35.36v1.9c0 .37.08.45.34.48h.39c.05 0 .07 0 .07.05s0 .07-.14.07h-1.94c-.1 0-.14 0-.14-.07s0-.05.07-.05a1.41 1.41 0 0 0 .26 0c.18 0 .22-.23.25-.48s0-1.06 0-1.9v-.93l-.05-.05h-3.72s-.05 0-.05.05v2.82c0 .37.08.45.34.48h.39c.05 0 .07 0 .07.05s0 .07-.14.07h-1.94c-.1 0-.14 0-.14-.07s0-.05.07-.05a1.38 1.38 0 0 0 .26 0c.18 0 .22-.23.25-.48s0-1.06 0-1.9v-3.43c0-.28-.09-.44-.37-.5a1.69 1.69 0 0 0-.3 0s-.07 0-.07-.05 0-.07.14-.07h1.86c.1 0 .14 0 .14.07s0 .05-.07.05h-.22c-.24 0-.31.19-.32.5s0 .53 0 1.89v.18s0 .05.05.05h3.72l.05-.05v-2.07c0-.28-.09-.44-.37-.5a1.7 1.7 0 0 0-.3 0s-.07 0-.07-.05 0-.07.14-.07h1.86c.1 0 .14 0 .14.07s0 .05-.07.05h-.22c-.24 0-.31.19-.32.5s0 .53 0 1.89v1.54z" transform="translate(-1.65 -.22)"/><path class="cls-2" d="M17.27 2.37a2.15 2.15 0 1 1 2.15 2.14 2.15 2.15 0 0 1-2.15-2.14m2.18 31.45c-1.87 0-.72-1.49-1.6-1.88-3.09-1.39-4.44-3.55-4.1-6.43.23-2 1.77-3.12 3-4.49a.09.09 0 0 0 0-.12c-1.75-1.68-3.75-2.83-5.4-4.67-.9-1-.63-2.94.74-3.3 1.8-.48 4.83-.54 5.44 0s-.59 2.5-1.41 2.9a.12.12 0 0 0-.07.07c-.17.51 1.25 1.18 1.91 1.66a.06.06 0 0 0 .1 0 2.71 2.71 0 0 0 0-.65v-5.7s0-.06-.07 0a6.24 6.24 0 0 1-2 .81c-2.94.24-6 .4-8.76-.62-2.55-1.03-5.23-3.02-5.58-6v-.06h15.57a.07.07 0 0 1 .08.07A2.78 2.78 0 0 1 15.74 8a8.49 8.49 0 0 1-2.29.31 46.49 46.49 0 0 0-4.67.05c-.08 0 0 .14 0 .18.31.35 4.69.41 6.47.23 1.94-.2 2.77-2.13 3-3.37 0-.06.07-.06.07-.06h2.3a.08.08 0 0 1 .07.06c.18 1.24 1 3.17 3 3.36 1.78.18 6.16.11 6.47-.24 0 0 .09-.13 0-.18a45.53 45.53 0 0 0-4.67 0A8.53 8.53 0 0 1 23.12 8a2.78 2.78 0 0 1-1.61-2.61.07.07 0 0 1 .08-.07h15.57v.06c-.37 3-3 5-5.59 5.92-2.81 1-5.82.88-8.76.64a6.22 6.22 0 0 1-2-.8h-.07v5.7a2.87 2.87 0 0 0 0 .65.07.07 0 0 0 .1 0c.67-.49 2.07-1.16 1.9-1.67a.12.12 0 0 0-.07-.07c-.82-.4-2-2.38-1.42-2.9s3.64-.47 5.44 0c1.37.36 1.65 2.27.75 3.3-1.6 1.84-3.67 3-5.36 4.68a.08.08 0 0 0 0 .12c1.2 1.37 2.75 2.52 3 4.48.35 2.88-1 5-4.08 6.44-.87.39.28 1.9-1.59 1.89m1.46-9.24a8.3 8.3 0 0 0 0 3.33.21.21 0 0 0 .38 0 2.39 2.39 0 0 0 0-3.23c-.16-.2-.29-.22-.35-.09m-2.95 0c-.06-.12-.19-.1-.35.1a2.39 2.39 0 0 0 0 3.22.21.21 0 0 0 .38 0 8.28 8.28 0 0 0 0-3.33" transform="translate(-1.65 -.22)"/><path class="cls-3" d="M19.45 41.58c11.46 0 16.77-10.09 16.76-16V13.83h-6.9v11.81c0 3.82-3.33 9.86-9.87 9.86-6.73 0-9.89-6.18-9.89-9.84V13.83H2.68v11.82a16.48 16.48 0 0 0 16.77 15.93" transform="translate(-1.65 -.22)"/></svg>