<svg xmlns="http://www.w3.org/2000/svg" width="165" height="47" viewBox="134.5 275 336.5 97.25"><path fill="#00539F" d="M174.026 361.52h77.246v-2.573h-4.197c-8.804 0-10.7-3.113-10.7-10.156v-54.985c0-7.043 1.896-10.158 10.7-10.158h4.197v-2.573H135.696v2.573h4.2c8.803 0 10.7 3.115 10.7 10.158v54.984c0 7.044-1.897 10.157-10.7 10.157h-4.2v2.574h38.33z"/><radialGradient id="a" cx="737.05" cy="716.724" r="43.262" gradientTransform="matrix(.3 0 0 -.3 -14.6 498.2)" gradientUnits="userSpaceOnUse"><stop offset="0" stop-color="#FFF"/><stop offset="1" stop-color="#00A2B2"/></radialGradient><circle fill="url(#a)" cx="209.332" cy="286.267" r="8.428"/><radialGradient id="b" cx="707.7" cy="617.021" r="17.462" gradientTransform="matrix(.3 0 0 -.3 -14.6 498.2)" gradientUnits="userSpaceOnUse"><stop offset="0" stop-color="#FFF"/><stop offset="1" stop-color="#00A2B2"/></radialGradient><circle fill="url(#b)" cx="198.498" cy="314.437" r="4.214"/><radialGradient id="c" cx="672.754" cy="590.465" r="17.487" gradientTransform="matrix(.3 0 0 -.3 -14.6 498.2)" gradientUnits="userSpaceOnUse"><stop offset="0" stop-color="#FFF"/><stop offset="1" stop-color="#00A2B2"/></radialGradient><circle fill="url(#c)" cx="188.312" cy="322.471" r="4.214"/><radialGradient id="d" cx="703.505" cy="572.295" r="17.485" gradientTransform="matrix(.3 0 0 -.3 -14.6 498.2)" gradientUnits="userSpaceOnUse"><stop offset="0" stop-color="#FFF"/><stop offset="1" stop-color="#00A2B2"/></radialGradient><circle fill="url(#d)" cx="197.386" cy="327.804" r="4.214"/><radialGradient id="e" cx="734.258" cy="596.521" r="16.172" gradientTransform="matrix(.3 0 0 -.3 -14.6 498.2)" gradientUnits="userSpaceOnUse"><stop offset="0" stop-color="#FFF"/><stop offset="1" stop-color="#00A2B2"/></radialGradient><circle fill="url(#e)" cx="206.37" cy="320.305" r="4.214"/><radialGradient id="f" cx="763.601" cy="581.151" r="19.942" gradientTransform="matrix(.3 0 0 -.3 -14.6 498.2)" gradientUnits="userSpaceOnUse"><stop offset="0" stop-color="#FFF"/><stop offset="1" stop-color="#00A2B2"/></radialGradient><circle fill="url(#f)" cx="216.032" cy="325.451" r="4.214"/><radialGradient id="g" cx="675.563" cy="723.718" r="42.601" gradientTransform="matrix(.3 0 0 -.3 -14.6 498.2)" gradientUnits="userSpaceOnUse"><stop offset="0" stop-color="#FFF"/><stop offset="1" stop-color="#00A2B2"/></radialGradient><circle fill="url(#g)" cx="191.095" cy="284.641" r="8.428"/><radialGradient id="h" cx="619.645" cy="462.812" r="37.346" gradientTransform="matrix(.3 0 0 -.3 -14.6 498.2)" gradientUnits="userSpaceOnUse"><stop offset="0" stop-color="#FFF"/><stop offset="1" stop-color="#00A2B2"/></radialGradient><circle fill="url(#h)" cx="173.578" cy="362.651" r="8.428"/><radialGradient id="i" cx="701.171" cy="467.466" r="39.514" gradientTransform="matrix(.3 0 0 -.3 -14.6 498.2)" gradientUnits="userSpaceOnUse"><stop offset="0" stop-color="#FFF"/><stop offset="1" stop-color="#00A2B2"/></radialGradient><circle fill="url(#i)" cx="198.679" cy="361.749" r="8.427"/><radialGradient id="j" cx="660.64" cy="496.82" r="28.751" gradientTransform="matrix(.3 0 0 -.3 -14.6 498.2)" gradientUnits="userSpaceOnUse"><stop offset="0" stop-color="#FFF"/><stop offset="1" stop-color="#00A2B2"/></radialGradient><path fill="url(#j)" d="M185.857 358.317c3.494 0 6.32-2.83 6.32-6.32a6.316 6.316 0 0 0-6.32-6.32 6.32 6.32 0 0 0 0 12.64z"/><radialGradient id="k" cx="700.714" cy="523.371" r="27.143" gradientTransform="matrix(.3 0 0 -.3 -14.6 498.2)" gradientUnits="userSpaceOnUse"><stop offset="0" stop-color="#FFF"/><stop offset="1" stop-color="#00A2B2"/></radialGradient><circle fill="url(#k)" cx="197.236" cy="343.691" r="6.321"/><radialGradient id="l" cx="742.643" cy="501.017" r="28.454" gradientTransform="matrix(.3 0 0 -.3 -14.6 498.2)" gradientUnits="userSpaceOnUse"><stop offset="0" stop-color="#FFF"/><stop offset="1" stop-color="#00A2B2"/></radialGradient><circle fill="url(#l)" cx="210.417" cy="350.734" r="6.322"/><radialGradient id="m" cx="774.785" cy="533.631" r="27.954" gradientTransform="matrix(.3 0 0 -.3 -14.6 498.2)" gradientUnits="userSpaceOnUse"><stop offset="0" stop-color="#FFF"/><stop offset="1" stop-color="#00A2B2"/></radialGradient><circle fill="url(#m)" cx="219.807" cy="340.62" r="6.321"/><radialGradient id="n" cx="733.788" cy="555.523" r="30.126" gradientTransform="matrix(.3 0 0 -.3 -14.6 498.2)" gradientUnits="userSpaceOnUse"><stop offset="0" stop-color="#FFF"/><stop offset="1" stop-color="#00A2B2"/></radialGradient><circle fill="url(#n)" cx="207.527" cy="334.12" r="6.32"/><radialGradient id="o" cx="639.215" cy="679.457" r="29.995" gradientTransform="matrix(.3 0 0 -.3 -14.6 498.2)" gradientUnits="userSpaceOnUse"><stop offset="0" stop-color="#FFF"/><stop offset="1" stop-color="#00A2B2"/></radialGradient><circle fill="url(#o)" cx="179.358" cy="296.74" r="6.321"/><radialGradient id="p" cx="704.432" cy="673.862" r="31.438" gradientTransform="matrix(.3 0 0 -.3 -14.6 498.2)" gradientUnits="userSpaceOnUse"><stop offset="0" stop-color="#FFF"/><stop offset="1" stop-color="#00A2B2"/></radialGradient><circle fill="url(#p)" cx="198.679" cy="298.907" r="6.321"/><radialGradient id="q" cx="602.866" cy="645.905" r="29.337" gradientTransform="matrix(.3 0 0 -.3 -14.6 498.2)" gradientUnits="userSpaceOnUse"><stop offset="0" stop-color="#FFF"/><stop offset="1" stop-color="#00A2B2"/></radialGradient><circle fill="url(#q)" cx="168.703" cy="306.853" r="6.321"/><radialGradient id="r" cx="668.559" cy="641.246" r="29.633" gradientTransform="matrix(.3 0 0 -.3 -14.6 498.2)" gradientUnits="userSpaceOnUse"><stop offset="0" stop-color="#FFF"/><stop offset="1" stop-color="#00A2B2"/></radialGradient><circle fill="url(#r)" cx="187.844" cy="308.659" r="6.32"/><radialGradient id="s" cx="632.227" cy="607.705" r="30.966" gradientTransform="matrix(.3 0 0 -.3 -14.6 498.2)" gradientUnits="userSpaceOnUse"><stop offset="0" stop-color="#FFF"/><stop offset="1" stop-color="#00A2B2"/></radialGradient><circle fill="url(#s)" cx="177.191" cy="318.048" r="6.321"/><path d="M277.992 294.112v-5.48c0-5.105-.302-5.435-2.684-5.72v-1.842h12.096v1.843c-2.684.284-2.986.614-2.986 5.718v15.594c0 5.103.303 5.434 2.91 5.718v1.843h-12.322v-1.843c2.684-.284 2.986-.614 2.986-5.718v-7.183h-7.825v7.184c0 5.103.303 5.434 2.76 5.718v1.843H260.83v-1.843c2.61-.284 2.912-.614 2.912-5.718V288.63c0-5.103-.302-5.433-3.062-5.717v-1.843h12.096v1.843c-2.306.284-2.608.614-2.608 5.718v5.482h7.824zm23.585-13.042v1.843c-2.495.284-2.797.614-2.797 5.718v9.64c0 6.71 1.89 10.538 5.254 10.538 3.855 0 5.972-4.158 5.972-11.955v-2.835c0-4.63-.15-7.23-.303-8.694-.19-1.654-1.21-2.268-3.704-2.41v-1.843h9.562v1.844c-1.815.095-2.797.756-2.986 2.41-.15 1.465-.303 4.064-.303 8.694v3.638c0 4.064-.604 8.364-2.72 11.293-1.665 2.268-4.537 3.543-7.183 3.543-2.722 0-5.292-.614-7.144-2.55-2.004-2.033-2.873-5.435-2.873-10.964v-10.35c0-5.103-.302-5.433-2.948-5.717v-1.843h12.172zm37.679 31.045h-3.25l-13.986-22.303h-.076v8.694c0 4.962.15 7.56.303 9.025.19 1.655 1.21 2.27 3.704 2.41v1.844h-9.41v-1.843c1.662-.094 2.645-.755 2.834-2.41.15-1.464.303-4.062.303-9.024v-8.694c0-3.497-.076-4.11-.832-5.434-.566-.992-1.512-1.323-2.873-1.465v-1.843h8.353l12.588 19.61h.076v-6.332c0-4.96-.153-7.56-.304-9.025-.19-1.654-1.21-2.268-3.705-2.41v-1.843h9.64v1.843c-1.89.095-2.872.756-3.06 2.41-.15 1.465-.303 4.064-.303 9.025v17.767zm18.514-7.891c0 5.103.304 5.434 3.48 5.718v1.843h-13.23v-1.843c3.023-.284 3.326-.614 3.326-5.718v-20.697h-.643c-2.533 0-3.553.567-4.158 1.418-.453.71-.907 1.938-1.398 4.583h-1.588c.15-3.97.377-7.23.452-9.64h1.172c.567 1.087.945 1.182 1.967 1.182h15.083c.982 0 1.172-.284 1.775-1.18h1.172c.04 1.983.228 6 .416 9.496l-1.663.142c-.567-2.835-.982-4.064-1.55-4.867-.643-.85-1.89-1.133-3.704-1.133h-.908v20.697zm10.812-2.174c.795 2.74 3.024 7.986 6.728 7.986 1.966 0 3.48-1.606 3.48-4.678 0-2.788-1.44-4.442-3.782-5.67l-.566-.33c-3.137-1.75-6.615-4.253-6.615-9.31 0-5.34 3.1-9.686 9.035-9.686 1.172 0 2.38.19 3.477.567.868.282 1.474.472 1.965.66.15 1.844.416 4.16.832 7.372l-1.663.33c-.832-3.118-2.154-6.473-5.14-6.473-1.93 0-3.29 1.842-3.29 4.11 0 2.363 1.436 3.78 3.893 5.103l.83.473c3.48 1.938 6.465 4.395 6.465 9.923 0 5.81-3.742 10.064-9.6 10.064-1.512 0-3.062-.378-4.082-.803-1.135-.47-1.93-.85-2.382-1.133-.303-2.174-.794-4.726-1.247-7.89l1.662-.617zm48.264-20.98v1.843c-2.873.33-3.023.52-2.91 5.48l.378 15.83c.113 5.246.19 5.388 2.91 5.72v1.842h-11.83v-1.843c2.834-.33 2.947-.473 2.91-5.718l-.114-16.633h-.15l-7.296 23.674h-2.04l-6.918-22.02h-.076l-.265 10.49c-.113 4.063-.075 6.332.075 7.796.152 1.75.983 2.174 3.44 2.41v1.843h-9.337v-1.843c1.815-.19 2.533-.662 2.76-2.41.19-1.465.416-3.97.605-8.27l.416-9.544c.265-5.954-.038-6.474-3.024-6.805v-1.842h8.883l6.615 18.712 5.783-18.712h9.186v.002zm14.248 28.872l1.134-.19c1.4-.235 1.475-.708.983-2.41l-1.36-4.82h-6.2l-1.132 4.538c-.53 2.032-.492 2.504 1.247 2.74l1.096.142v1.843h-8.807v-1.843c1.928-.33 2.495-.52 3.742-4.49l7.56-24.43 2.608-.66 2.57 8.93c1.626 5.624 3.252 11.2 4.688 16.02 1.21 4.11 1.892 4.346 3.743 4.63v1.843h-11.87v-1.843zm-4.8-10.254h4.838l-2.382-9.025h-.113l-2.343 9.025zm40.141 12.427h-3.25l-13.986-22.303h-.077v8.694c0 4.962.15 7.56.302 9.025.19 1.655 1.21 2.27 3.705 2.41v1.844h-9.412v-1.843c1.663-.094 2.646-.755 2.835-2.41.15-1.464.302-4.062.302-9.024v-8.694c0-3.497-.075-4.11-.83-5.434-.567-.992-1.513-1.323-2.873-1.465v-1.843h8.353l12.588 19.61h.075v-6.332c0-4.96-.15-7.56-.302-9.025-.19-1.654-1.21-2.268-3.704-2.41v-1.843h9.64v1.843c-1.892.095-2.874.756-3.063 2.41-.15 1.465-.303 4.064-.303 9.025v17.767h-.002z" fill="#00539F"/><path d="M273.768 325.318c-.912-3.363-2.395-4.592-4.698-4.592-4.037 0-5.84 4.3-5.84 8.892 0 5.645 2.236 9.712 5.863 9.712 2.646 0 3.832-1.9 5.177-4.974l.342.09c-.296 1.256-.798 3.597-1.164 4.708-.638.205-2.69.818-4.288.818-5.747 0-8.165-5.03-8.165-9.682 0-6.025 3.626-10.21 8.576-10.21 1.962 0 3.49.587 4.13.762.182 1.608.273 2.897.41 4.417l-.342.058zm1.258 14.217v-.41c1.482-.468 1.756-.673 2.623-3.51l4.674-15.416.297-.118 1.69 5.587c1.117 3.686 2.12 7.4 3.033 10.384.73 2.398 1.026 2.633 2.44 3.07v.41h-5.45v-.41l.752-.263c.82-.262.89-.555.685-1.46-.16-.703-.82-2.984-1.482-5.237h-4.88c-.274.907-.845 3.19-1.073 4.358-.342 1.756-.137 2.107 1.095 2.458l.48.146v.41h-4.884zm4.607-8.25h4.402l-2.19-7.46h-.045l-2.167 7.46zm24.249 8.455h-.365l-10.195-15.885h-.046v7.928c0 3.07.16 4.65.297 5.558.16 1.024.775 1.55 2.28 1.785v.41h-5.496v-.41c1.255-.205 1.848-.76 2.007-1.784.137-.905.296-2.485.296-5.557v-6.29c0-2.485-.022-2.66-.433-3.305-.434-.673-1.05-1.023-2.03-1.258v-.41h3.307l9.716 14.977h.046v-7.225c0-3.07-.16-4.65-.296-5.558-.16-1.023-.776-1.55-2.28-1.784v-.41h5.496v.41c-1.254.205-1.848.76-2.007 1.784-.138.907-.297 2.486-.297 5.558v11.467zm16.21-14.422c-.912-3.363-2.395-4.592-4.7-4.592-4.036 0-5.837 4.3-5.837 8.892 0 5.645 2.234 9.712 5.86 9.712 2.647 0 3.833-1.9 5.18-4.974l.34.09c-.296 1.256-.798 3.597-1.163 4.708-.638.205-2.69.818-4.287.818-5.748 0-8.166-5.03-8.166-9.682 0-6.025 3.626-10.21 8.575-10.21 1.962 0 3.49.587 4.13.762.18 1.608.272 2.897.41 4.417l-.343.058zm4.258-.555c0-3.16-.184-3.51-2.008-3.832v-.408h9.898c.022.497.137 2.633.25 4.27l-.342.088c-.318-1.463-.707-2.224-1.025-2.69-.343-.498-1.027-1.024-2.76-1.024h-1.506c-.64 0-.685.058-.685.878v7.137h2.304c1.96 0 2.03-.292 2.486-2.456h.342v5.79h-.342c-.228-1.11-.365-1.724-.685-2.046-.32-.352-.82-.41-1.802-.41h-2.304v5.616c0 1.668.138 2.37.525 2.75.478.468 1.3.468 2.373.468 1.3 0 2.37-.468 2.873-1.17.39-.526.8-1.52 1.323-2.866l.343.088c-.114.82-.616 3.802-.798 4.593h-10.7v-.41c2.054-.322 2.236-.673 2.236-3.832v-10.532h.003zm14.696 10.53c0 3.16.183 3.51 2.054 3.832v.41h-5.93v-.41c1.914-.322 2.098-.673 2.098-3.832v-10.53c0-3.16-.184-3.51-2.008-3.832v-.408h5.68c1.437 0 2.714.264 3.58.994.913.73 1.506 2.048 1.506 3.744 0 2.34-1.163 4.154-3.08 5.148.39.877 1.324 2.867 2.008 4.154a39.33 39.33 0 0 0 2.053 3.422c.64.936 1.004 1.23 1.688 1.404l-.02.35c-.275 0-.663-.028-1.37-.116-1.46-.204-2.28-.79-3.216-2.485-.914-1.668-1.712-3.54-2.396-5.003-.41-.878-.844-1.082-1.642-1.082h-1.004v4.24h-.002zm0-4.826h1.072c1.07 0 1.962-.146 2.6-.76.98-.995 1.323-2.43 1.323-4.038 0-3.22-1.664-4.563-3.558-4.563-.728 0-1.05.06-1.23.146-.137.06-.206.205-.206.79v8.424zm20.002 4.826c0 3.16.183 3.51 2.053 3.832v.41h-5.93v-.41c1.87-.322 2.054-.673 2.054-3.832v-10.53c0-3.16-.183-3.51-2.053-3.832v-.408h5.93v.41c-1.87.32-2.052.672-2.052 3.83v10.53zm16.967 4.447h-.364l-10.194-15.885h-.047v7.928c0 3.07.16 4.65.296 5.558.16 1.024.775 1.55 2.28 1.785v.41h-5.496v-.41c1.255-.205 1.848-.76 2.007-1.784.137-.905.297-2.485.297-5.557v-6.29c0-2.485-.023-2.66-.434-3.305-.434-.673-1.05-1.023-2.03-1.258v-.41h3.308l9.717 14.977h.045v-7.225c0-3.07-.16-4.65-.296-5.558-.16-1.023-.775-1.55-2.28-1.784v-.41h5.496v.41c-1.254.205-1.848.76-2.008 1.784-.137.907-.296 2.486-.296 5.558v11.467zm3.858-5.384c.434 1.346 1.71 4.827 4.22 4.827 1.733 0 2.85-1.316 2.85-3.744 0-2.955-1.847-3.892-3.077-4.71-.89-.586-3.764-1.932-3.764-5.295 0-2.838 1.665-5.354 4.63-5.354 1.3 0 2.053.47 2.737.675.09 1.023.227 2.193.41 3.977l-.343.088c-.502-1.784-1.186-4.036-3.308-4.036-1.757 0-2.555 1.52-2.555 3.363 0 2.165 1.3 3.218 3.033 4.24 1.687.967 3.877 2.225 3.877 5.705 0 3.276-2.145 5.82-5.017 5.88a7.03 7.03 0 0 1-2.145-.497c-.57-.234-.957-.47-1.21-.615-.204-.76-.454-2.837-.683-4.387l.343-.117zm21.099-13.834c.593 0 .798-.176 1.163-.732h.228c.022 1.23.137 3.364.25 5.06l-.342.09c-.386-1.405-.638-2.225-.98-2.78-.364-.585-1.048-.994-2.44-.994h-1.688v14.128c0 3.16.184 3.51 2.418 3.832v.41h-6.568v-.41c2.145-.322 2.326-.673 2.326-3.832v-14.128h-1.186c-2.03 0-2.578.585-2.92 1.17-.273.497-.64 1.316-.957 2.604h-.343c.09-1.784.228-3.657.273-5.148h.23c.34.673.66.732 1.275.732h9.262v-.002zm6.842 14.771c0 3.16.182 3.51 2.053 3.832v.41h-5.93v-.41c1.87-.322 2.052-.673 2.052-3.832v-10.53c0-3.16-.184-3.51-2.054-3.832v-.408h5.93v.41c-1.87.32-2.052.672-2.052 3.83v10.53zm14.456-14.771c.595 0 .8-.176 1.164-.732h.228c.022 1.23.137 3.364.25 5.06l-.34.09c-.39-1.405-.64-2.225-.983-2.78-.365-.585-1.05-.994-2.44-.994h-1.69v14.128c0 3.16.183 3.51 2.42 3.832v.41h-6.57v-.41c2.144-.322 2.327-.673 2.327-3.832v-14.128h-1.187c-2.03 0-2.577.585-2.92 1.17-.273.497-.638 1.316-.958 2.604h-.342c.092-1.784.228-3.657.273-5.148h.228c.343.673.663.732 1.278.732h9.263v-.002zm8.668 0v.41c-1.824.32-2.007.672-2.007 3.83v6.202c0 2.486.25 4.358.96 5.675.705 1.286 1.778 2.018 3.374 2.018 1.483 0 2.647-.878 3.376-2.28.753-1.464 1.026-4.038 1.026-6.495v-1.61c0-3.07-.114-4.65-.25-5.557-.16-1.023-.776-1.55-2.28-1.784v-.41h5.495v.41c-1.253.205-1.847.76-2.006 1.784-.137.907-.343 2.486-.343 5.587v1.96c0 3.394-.41 5.792-1.732 7.605-.98 1.346-2.622 2.105-4.06 2.105-1.163 0-2.6-.38-3.65-1.49-1.185-1.26-1.733-3.248-1.733-6.582v-7.137c0-3.16-.183-3.51-2.1-3.832v-.408h5.933zm21.602 0c.592 0 .798-.176 1.162-.732h.23c.02 1.23.136 3.364.25 5.06l-.342.09c-.388-1.405-.64-2.225-.98-2.78-.365-.585-1.05-.994-2.44-.994h-1.69v14.128c0 3.16.184 3.51 2.42 3.832v.41h-6.57v-.41c2.145-.322 2.327-.673 2.327-3.832v-14.128h-1.187c-2.03 0-2.577.585-2.92 1.17-.273.497-.64 1.316-.958 2.604h-.342c.09-1.784.228-3.657.273-5.148h.23c.34.673.66.732 1.276.732h9.26v-.002zm5.017 4.241c0-3.16-.183-3.51-2.007-3.832v-.408h9.898c.023.497.138 2.633.25 4.27l-.34.088c-.32-1.463-.708-2.224-1.027-2.69-.34-.498-1.025-1.024-2.76-1.024h-1.505c-.638 0-.684.058-.684.878v7.137h2.305c1.96 0 2.03-.292 2.486-2.456h.343v5.79h-.342c-.227-1.11-.364-1.724-.685-2.046-.318-.352-.82-.41-1.8-.41h-2.305v5.616c0 1.668.137 2.37.525 2.75.48.468 1.3.468 2.372.468 1.3 0 2.372-.468 2.874-1.17.39-.526.8-1.52 1.323-2.866l.342.088c-.113.82-.615 3.802-.798 4.593H455.32v-.41c2.053-.322 2.235-.673 2.235-3.832v-10.532h.002zM263.165 353.44c0-2.7 0-3.187-.036-3.74-.035-.588-.174-.867-.745-.987a3.215 3.215 0 0 0-.588-.053c-.07 0-.14-.035-.14-.105 0-.102.087-.137.277-.137.78 0 1.836.052 1.992.052.155 0 1.194-.052 1.714-.052.19 0 .277.035.277.137 0 .07-.07.105-.138.105-.123 0-.227.017-.435.053-.467.067-.607.38-.64.987-.036.553-.036 1.04-.036 3.74v2.425c0 2.494.554 3.568 1.3 4.277.846.797 1.625.952 2.613.952 1.056 0 2.095-.502 2.72-1.246.795-.988 1.004-2.458 1.004-4.244v-2.164c0-2.702 0-3.188-.035-3.74-.036-.59-.174-.868-.746-.988a3.213 3.213 0 0 0-.59-.053c-.067 0-.136-.036-.136-.106 0-.102.087-.137.276-.137.78 0 1.732.052 1.836.052.122 0 .935-.053 1.454-.053.19 0 .277.035.277.137 0 .07-.07.105-.138.105-.122 0-.226 0-.434.052-.467.087-.605.38-.64.987-.034.552-.034 1.038-.034 3.74v1.853c0 1.87-.208 3.948-1.594 5.178-1.247 1.11-2.545 1.283-3.568 1.283-.588 0-2.336-.07-3.567-1.23-.848-.813-1.506-2.025-1.506-4.555v-2.527h.005zm15.845 5.715c.035 1.42.207 1.87.675 2.008.33.086.71.105.865.105.086 0 .14.033.14.105 0 .103-.106.137-.313.137-.986 0-1.68-.052-1.835-.052-.155 0-.882.052-1.663.052-.174 0-.277-.02-.277-.137 0-.072.052-.105.138-.105.14 0 .452-.02.71-.105.435-.12.522-.622.522-2.2l.017-9.92c0-.676.05-.868.19-.868.138 0 .434.38.606.556.26.294 2.84 3.083 5.507 5.94 1.714 1.835 3.602 3.947 4.156 4.52l-.19-8.797c-.02-1.125-.14-1.505-.676-1.645a4.565 4.565 0 0 0-.85-.087c-.12 0-.138-.05-.138-.12 0-.103.138-.12.345-.12.78 0 1.612.05 1.803.05.19 0 .76-.05 1.472-.05.19 0 .31.017.31.12 0 .07-.07.12-.19.12-.086 0-.208 0-.415.054-.57.12-.64.502-.64 1.54l-.035 10.15c0 1.14-.035 1.228-.157 1.228-.138 0-.345-.19-1.264-1.108-.19-.174-2.683-2.72-4.52-4.694a379.98 379.98 0 0 1-4.52-4.97l.226 8.295zm17.386-2.667c0 1.662 0 3.03.087 3.756.052.504.155.885.675.954.243.035.624.07.78.07.104 0 .137.05.137.105 0 .085-.086.137-.278.137-.95 0-2.042-.052-2.13-.052-.084 0-1.176.052-1.696.052-.19 0-.276-.034-.276-.137 0-.054.035-.105.14-.105.155 0 .363-.035.518-.07.346-.07.434-.45.503-.954.086-.727.086-2.094.086-3.756v-3.047c0-2.7 0-3.187-.033-3.74-.035-.588-.208-.883-.59-.97a2.217 2.217 0 0 0-.536-.07c-.068 0-.138-.035-.138-.105 0-.102.086-.137.277-.137.57 0 1.662.052 1.748.052.087 0 1.178-.052 1.697-.052.19 0 .277.035.277.137 0 .07-.07.105-.138.105-.122 0-.225.017-.434.053-.466.087-.605.38-.64.987-.035.553-.035 1.04-.035 3.74v3.048zm9.922 2.91c1.004-2.32 3.326-8.363 3.707-9.61.086-.26.156-.503.156-.657 0-.14-.052-.31-.226-.397-.205-.07-.465-.07-.658-.07-.102 0-.188-.017-.188-.106 0-.102.103-.137.38-.137.692 0 1.49.052 1.694.052.103 0 .852-.052 1.353-.052.19 0 .295.035.295.122 0 .086-.07.12-.207.12-.123 0-.506 0-.832.208-.228.156-.485.45-.952 1.627-.19.485-1.057 2.565-1.94 4.693-1.056 2.53-1.835 4.4-2.234 5.247-.485 1.04-.555 1.318-.727 1.318-.208 0-.295-.243-.624-1.074l-4.242-10.616c-.38-.97-.642-1.16-1.246-1.33-.26-.072-.553-.072-.66-.072-.1 0-.137-.05-.137-.12 0-.104.173-.122.452-.122.83 0 1.816.052 2.024.052.174 0 .952-.052 1.61-.052.313 0 .47.035.47.122 0 .086-.054.12-.175.12-.19 0-.502.017-.66.087a.344.344 0 0 0-.225.345c0 .224.208.762.468 1.438l3.325 8.865zm9.094-5.958c0-2.7 0-3.187-.035-3.74-.035-.588-.174-.867-.746-.987a3.166 3.166 0 0 0-.59-.053c-.067 0-.136-.035-.136-.105 0-.102.084-.137.277-.137.78 0 1.87.052 1.958.052.12 0 3.566 0 3.965-.017.328-.018.607-.053.746-.086.083-.018.153-.087.24-.087.052 0 .07.07.07.156 0 .12-.087.33-.14.815-.018.173-.053.936-.088 1.143-.018.087-.05.19-.12.19-.103 0-.138-.087-.138-.225 0-.12-.016-.415-.103-.622-.122-.277-.294-.484-1.232-.59-.293-.033-2.182-.05-2.37-.05-.07 0-.103.05-.103.172v4.78c0 .12.018.17.104.17.222 0 2.352 0 2.75-.032.415-.037.66-.07.815-.243.123-.14.19-.226.26-.226.053 0 .086.037.086.14 0 .104-.085.397-.136.97-.035.347-.07.987-.07 1.107 0 .14 0 .33-.12.33-.087 0-.124-.07-.124-.155 0-.176 0-.348-.068-.573-.068-.242-.227-.537-.9-.605-.47-.053-2.182-.087-2.475-.087-.088 0-.12.05-.12.12v1.525c0 .59-.02 2.6 0 2.96.048 1.196.31 1.42 2.007 1.42.45 0 1.213 0 1.662-.19.45-.192.658-.537.777-1.246.035-.19.07-.26.158-.26.105 0 .105.14.105.26 0 .137-.14 1.316-.227 1.678-.12.45-.258.45-.935.45-2.613 0-3.773-.102-4.275-.102-.088 0-1.178.052-1.697.052-.188 0-.276-.034-.276-.137 0-.054.035-.105.137-.105.16 0 .366-.035.523-.07.346-.07.432-.45.502-.954.088-.727.088-2.094.088-3.756v-3.05zm10.561 0c0-2.7 0-3.187-.033-3.74-.033-.588-.174-.867-.746-.987a3.183 3.183 0 0 0-.588-.053c-.068 0-.137-.035-.137-.105 0-.102.085-.137.274-.137.78 0 1.87.052 1.957.052.19 0 1.507-.052 2.044-.052 1.092 0 2.252.105 3.17.762.434.31 1.195 1.16 1.195 2.354 0 1.282-.54 2.564-2.097 4 1.42 1.818 2.598 3.36 3.602 4.435.936.984 1.68 1.176 2.113 1.246.33.052.57.052.674.052.088 0 .154.05.154.105 0 .103-.102.137-.414.137h-1.23c-.967 0-1.402-.086-1.852-.33-.744-.398-1.35-1.246-2.336-2.545-.728-.954-1.543-2.113-1.89-2.563-.067-.07-.12-.104-.225-.104l-2.13-.035c-.088 0-.12.054-.12.14v.415c0 1.662 0 3.03.085 3.756.053.504.156.885.678.954.24.035.62.07.78.07.1 0 .136.05.136.105 0 .085-.087.137-.278.137-.953 0-2.045-.052-2.13-.052-.02 0-1.108.052-1.628.052-.19 0-.277-.034-.277-.137 0-.054.035-.105.14-.105.155 0 .362-.035.52-.07.344-.07.432-.45.502-.954.083-.727.083-2.094.083-3.756v-3.047zm1.386 1.508c0 .086.032.155.12.207.26.156 1.055.276 1.82.276.414 0 .898-.05 1.297-.327.607-.417 1.057-1.35 1.057-2.667 0-2.166-1.145-3.463-2.998-3.463-.518 0-.986.052-1.158.103a.211.211 0 0 0-.14.208v5.664zm10.371 6.338c-.244-.123-.262-.192-.262-.66 0-.864.07-1.558.086-1.834.02-.19.053-.28.14-.28.105 0 .122.055.122.193 0 .155 0 .397.05.64.263 1.282 1.403 1.766 2.565 1.766 1.665 0 2.476-1.193 2.476-2.302 0-1.193-.502-1.886-1.988-3.116l-.78-.642c-1.837-1.506-2.253-2.58-2.253-3.758 0-1.852 1.385-3.117 3.584-3.117.675 0 1.177.07 1.612.174.326.068.467.085.603.085.14 0 .174.035.174.12 0 .09-.07.66-.07 1.837 0 .276-.034.398-.122.398-.102 0-.12-.086-.137-.226-.017-.207-.122-.675-.224-.865-.105-.193-.572-.92-2.166-.92-1.195 0-2.13.745-2.13 2.01 0 .987.485 1.575 2.112 2.908l.486.38c2.043 1.612 2.527 2.686 2.527 4.07 0 .71-.277 2.027-1.473 2.874-.744.52-1.68.73-2.613.73-.816 0-1.612-.12-2.32-.466zm12.432-4.798c0 1.662 0 3.03.088 3.756.053.504.156.885.674.954.244.035.623.07.78.07.105 0 .138.05.138.105 0 .085-.084.137-.275.137-.955 0-2.045-.052-2.13-.052-.09 0-1.18.052-1.698.052-.192 0-.278-.034-.278-.137 0-.054.035-.105.14-.105.155 0 .364-.035.517-.07.347-.07.435-.45.503-.954.086-.727.086-2.094.086-3.756v-3.047c0-2.7 0-3.187-.034-3.74-.035-.588-.21-.883-.592-.97a2.186 2.186 0 0 0-.535-.07c-.067 0-.138-.035-.138-.105 0-.102.086-.137.277-.137.57 0 1.66.052 1.747.052.086 0 1.176-.052 1.697-.052.19 0 .275.035.275.137 0 .07-.07.105-.138.105-.12 0-.225.017-.432.053-.47.087-.607.38-.64.987-.038.553-.038 1.04-.038 3.74v3.048zm9.856 0c0 1.662 0 3.03.084 3.756.053.504.156.885.678.954.242.035.623.07.777.07.104 0 .14.05.14.105 0 .085-.087.137-.276.137-.954 0-2.044-.052-2.132-.052-.086 0-1.176.052-1.697.052-.188 0-.274-.034-.274-.137 0-.054.033-.105.14-.105.155 0 .362-.035.52-.07.345-.07.43-.45.5-.954.087-.727.087-2.094.087-3.756v-7.326l-2.562.034c-1.07.018-1.487.14-1.763.555a2.914 2.914 0 0 0-.297.537c-.05.14-.103.174-.174.174-.053 0-.084-.05-.084-.154 0-.174.344-1.663.38-1.8.034-.106.104-.33.175-.33.12 0 .29.173.76.208.502.05 1.16.085 1.37.085h6.49c1.11 0 1.577-.174 1.716-.174.088 0 .088.103.088.208 0 .52-.052 1.713-.052 1.904 0 .155-.055.226-.12.226-.087 0-.122-.052-.14-.295l-.018-.192c-.07-.52-.467-.917-2.13-.953l-2.18-.034v7.328h-.002zm10.572.537c0-.935-.172-1.317-.396-1.818-.123-.276-2.44-4.087-3.05-4.988-.433-.64-.862-1.075-1.175-1.282-.26-.173-.59-.278-.747-.278-.086 0-.174-.035-.174-.12 0-.07.07-.122.226-.122.328 0 1.627.052 1.713.052.122 0 .778-.052 1.454-.052.19 0 .225.052.225.122s-.103.086-.26.155c-.138.07-.226.173-.226.31 0 .21.088.418.227.677.276.503 2.876 4.97 3.19 5.473.327-.727 2.526-4.52 2.872-5.093.225-.362.297-.655.297-.882 0-.242-.073-.433-.282-.485-.154-.05-.258-.086-.258-.173 0-.07.104-.105.277-.105.45 0 1.004.052 1.142.052.103 0 1.35-.053 1.68-.053.12 0 .224.035.224.105 0 .086-.086.138-.223.138-.19 0-.522.07-.798.244-.346.208-.535.414-.916.883-.574.692-2.998 4.762-3.307 5.506-.263.624-.263 1.16-.263 1.732v1.487c0 .28 0 1.004.053 1.732.033.504.19.885.71.954.24.035.624.07.778.07.103 0 .137.05.137.105 0 .085-.084.137-.275.137-.953 0-2.045-.052-2.13-.052s-1.18.052-1.698.052c-.19 0-.275-.034-.275-.137 0-.054.033-.105.137-.105.158 0 .365-.035.52-.07.35-.07.504-.45.537-.954.052-.727.052-1.453.052-1.732v-1.487h-.002zm19.88-8.85c3.9 0 6.806 2.46 6.806 6.494 0 3.878-2.734 7.083-6.906 7.083-4.748 0-6.723-3.69-6.723-6.805 0-2.805 2.044-6.773 6.824-6.773zm.366 12.92c1.557 0 4.777-.9 4.777-5.94 0-4.156-2.53-6.39-5.26-6.39-2.896 0-5.06 1.903-5.06 5.696 0 4.038 2.426 6.634 5.543 6.634zm10.107-7.655c0-2.7 0-3.187-.035-3.74-.033-.588-.174-.867-.744-.987a3.245 3.245 0 0 0-.59-.053c-.07 0-.14-.035-.14-.105 0-.102.087-.137.278-.137.78 0 1.87.052 1.955.052.348 0 3.863 0 4.262-.017.33-.018.604-.018.76-.068.103-.036.175-.105.245-.105.068 0 .102.07.102.156 0 .12-.086.33-.137.815-.018.173-.055.936-.088 1.143-.02.087-.05.19-.14.19-.085 0-.12-.087-.12-.206 0-.14-.05-.434-.154-.66-.103-.225-.506-.536-1.178-.554l-2.666-.05c-.105 0-.158.05-.158.19v4.778c0 .106.02.157.12.157l2.216-.018c.297 0 .54 0 .78-.017.417-.036.642-.087.8-.312.068-.086.12-.173.19-.173.068 0 .086.053.086.14 0 .104-.086.397-.137.97-.034.347-.07 1.04-.07 1.16 0 .155 0 .33-.12.33-.09 0-.123-.07-.123-.157-.016-.17-.033-.415-.103-.623-.086-.242-.363-.555-.898-.625-.434-.05-2.324-.05-2.617-.05-.087 0-.122.032-.122.156v1.47c0 1.663 0 3.03.088 3.757.05.504.156.885.674.954.242.034.625.07.78.07.102 0 .14.05.14.104 0 .085-.088.137-.28.137-.952 0-2.042-.05-2.13-.05-.084 0-1.176.05-1.693.05-.193 0-.28-.033-.28-.136 0-.054.034-.105.138-.105.158 0 .367-.036.523-.07.346-.07.432-.45.5-.955.088-.727.088-2.094.088-3.756v-3.05h-.003zm14.873 0c0-2.7 0-3.187-.037-3.74-.032-.588-.17-.867-.743-.987a3.183 3.183 0 0 0-.588-.053c-.07 0-.142-.035-.142-.105 0-.102.09-.137.28-.137.776 0 1.833.052 1.99.052.157 0 1.194-.052 1.714-.052.19 0 .28.035.28.137 0 .07-.07.105-.142.105-.12 0-.225.017-.432.053-.47.067-.605.38-.64.987-.038.553-.038 1.04-.038 3.74v2.425c0 2.494.555 3.568 1.303 4.277.846.797 1.625.952 2.613.952 1.055 0 2.096-.502 2.72-1.246.792-.988 1.005-2.458 1.005-4.244v-2.164c0-2.702 0-3.188-.038-3.74-.033-.59-.174-.868-.746-.988a3.146 3.146 0 0 0-.586-.053c-.07 0-.137-.036-.137-.106 0-.102.084-.137.275-.137.78 0 1.73.052 1.834.052.123 0 .94-.053 1.457-.053.188 0 .274.035.274.137 0 .07-.068.105-.137.105-.123 0-.227 0-.438.052-.464.087-.605.38-.638.987-.033.552-.033 1.038-.033 3.74v1.853c0 1.87-.208 3.948-1.597 5.178-1.246 1.11-2.545 1.283-3.566 1.283-.59 0-2.338-.07-3.568-1.23-.847-.813-1.507-2.025-1.507-4.555v-2.527h.003zm19.067 3.048c0 1.662 0 3.03.088 3.756.05.504.155.885.675.954.242.035.623.07.78.07.102 0 .138.05.138.105 0 .085-.086.137-.275.137-.955 0-2.045-.052-2.13-.052-.09 0-1.18.052-1.698.052-.19 0-.274-.034-.274-.137 0-.054.03-.105.135-.105.155 0 .362-.035.52-.07.35-.07.434-.45.5-.954.09-.727.09-2.094.09-3.756v-7.326l-2.565.034c-1.07.018-1.488.14-1.764.555-.19.295-.24.416-.292.537-.053.14-.103.174-.176.174-.053 0-.086-.05-.086-.154 0-.174.346-1.663.38-1.8.036-.106.104-.33.175-.33.12 0 .294.173.76.208.505.05 1.16.085 1.372.085h6.492c1.11 0 1.576-.174 1.713-.174.088 0 .088.103.088.208 0 .52-.05 1.713-.05 1.904 0 .155-.054.226-.12.226-.088 0-.127-.052-.14-.295l-.02-.192c-.07-.52-.466-.917-2.128-.953l-2.184-.034v7.328zm9.987-7.638c.204-.57.276-.675.38-.675.1 0 .174.087.38.624.26.657 2.978 7.807 4.036 10.44.623 1.542 1.127 1.82 1.486 1.922.262.086.522.105.693.105.102 0 .174.017.174.105 0 .103-.157.137-.347.137-.26 0-1.523 0-2.72-.035-.327-.018-.52-.018-.52-.122 0-.068.054-.104.12-.12.107-.035.21-.19.107-.468l-1.613-4.26c-.035-.07-.068-.104-.154-.104h-3.725c-.086 0-.14.053-.172.14l-1.04 3.066c-.155.43-.24.85-.24 1.16 0 .345.362.503.66.503h.167c.125 0 .176.032.176.104 0 .103-.105.137-.26.137-.417 0-1.16-.05-1.353-.05-.19 0-1.14.05-1.957.05-.227 0-.328-.033-.328-.136 0-.072.068-.105.156-.105.12 0 .365-.02.502-.036.797-.104 1.143-.762 1.453-1.628l3.936-10.756zm1.8 6.928c.086 0 .086-.052.066-.122l-1.645-4.676c-.085-.26-.17-.26-.26 0l-1.524 4.676c-.03.087 0 .122.053.122h3.31zm18.285.71c0 1.662 0 3.03.084 3.756.054.504.16.885.677.954.244.035.63.07.78.07.103 0 .138.05.138.105 0 .085-.086.137-.275.137-.953 0-2.043-.052-2.133-.052-.086 0-1.178.052-1.695.052-.19 0-.277-.034-.277-.137 0-.054.033-.105.137-.105.156 0 .365-.035.523-.07.344-.07.432-.45.5-.954.086-.727.086-2.094.086-3.756v-1.82c0-.067-.05-.102-.103-.102h-7.342c-.055 0-.103.018-.103.103v1.818c0 1.662 0 3.03.086 3.756.053.504.154.885.676.954.242.035.62.07.777.07.107 0 .142.05.142.105 0 .085-.086.137-.277.137-.953 0-2.043-.052-2.13-.052-.085 0-1.177.052-1.696.052-.194 0-.28-.034-.28-.137 0-.054.03-.105.14-.105.157 0 .362-.035.517-.07.348-.07.435-.45.504-.954.087-.727.087-2.094.087-3.756v-3.047c0-2.7 0-3.187-.033-3.74-.033-.588-.172-.867-.746-.987a3.231 3.231 0 0 0-.588-.053c-.068 0-.137-.035-.137-.105 0-.102.086-.137.274-.137.783 0 1.875.052 1.96.052.087 0 1.177-.052 1.694-.052.194 0 .278.035.278.137 0 .07-.066.105-.137.105-.12 0-.222.017-.43.053-.47.087-.61.38-.642.987-.035.553-.035 1.04-.035 3.74v.364c0 .087.05.104.103.104h7.342c.053 0 .104-.018.104-.104v-.363c0-2.7 0-3.187-.035-3.74-.033-.588-.172-.867-.744-.987a3.23 3.23 0 0 0-.59-.053c-.065 0-.137-.035-.137-.105 0-.102.086-.137.275-.137.78 0 1.872.052 1.958.052.09 0 1.18-.052 1.7-.052.187 0 .274.035.274.137 0 .07-.07.105-.14.105-.118 0-.224.017-.43.053-.468.087-.61.38-.642.987-.035.553-.035 1.04-.035 3.74v3.048z"/></svg>