<?xml version="1.0" encoding="utf-8"?>
<!-- Generator: Adobe Illustrator 13.0.0, SVG Export Plug-In . SVG Version: 6.00 Build 14948)  -->
<!DOCTYPE svg PUBLIC "-//W3C//DTD SVG 1.1//EN" "http://www.w3.org/Graphics/SVG/1.1/DTD/svg11.dtd">
<svg version="1.1" id="Layer_1" xmlns="http://www.w3.org/2000/svg" xmlns:xlink="http://www.w3.org/1999/xlink" x="0px" y="0px"
	 width="772.557px" height="268.176px" viewBox="0.5 0.5 772.557 268.176" enable-background="new 0.5 0.5 772.557 268.176"
	 xml:space="preserve">
<path fill="#808285" d="M360.021,149.835c0,11.977,0,21.835,0.62,27.075c0.373,3.618,1.122,6.364,4.87,6.864
	c1.748,0.246,4.488,0.493,5.615,0.493c0.75,0,0.997,0.378,0.997,0.752c0,0.621-0.63,0.997-1.999,0.997
	c-6.864,0-14.721-0.374-15.342-0.374c-0.634,0-8.488,0.374-12.229,0.374c-1.375,0-1.993-0.25-1.993-0.997
	c0-0.374,0.244-0.752,0.995-0.752c1.128,0,2.616-0.247,3.741-0.493c2.497-0.5,3.12-3.246,3.619-6.864
	c0.625-5.239,0.625-15.099,0.625-27.075v-52.77l-18.466,0.246c-7.736,0.125-10.726,0.998-12.727,3.994
	c-1.375,2.118-1.741,2.99-2.118,3.865c-0.376,1.001-0.755,1.248-1.246,1.248c-0.377,0-0.624-0.372-0.624-1.122
	c0-1.25,2.49-11.975,2.744-12.973c0.249-0.749,0.745-2.374,1.244-2.374c0.878,0,2.124,1.25,5.492,1.495
	c3.618,0.375,8.356,0.625,9.854,0.625h46.79c3.989,0,6.859-0.25,8.855-0.625c1.873-0.245,2.994-0.621,3.498-0.621
	c0.621,0,0.621,0.749,0.621,1.5c0,3.739-0.377,12.35-0.377,13.722c0,1.125-0.376,1.622-0.871,1.622
	c-0.626,0-0.877-0.375-0.997-2.121l-0.131-1.376c-0.37-3.742-3.365-6.61-15.346-6.859l-15.714-0.246v52.77H360.021z
	 M415.283,146.093c0,18.217,4.732,26.95,10.844,32.813c8.864,8.361,21.467,8.858,25.707,8.858c7.359,0,16.717-1.247,25.7-9.232
	c9.979-8.858,11.479-23.828,11.479-37.304v-13.352c0-19.458,0-22.956,0.245-26.95c0.253-4.368,1.246-6.363,4.617-7.113
	c1.502-0.247,2.25-0.369,3.117-0.369c0.5,0,0.998-0.25,0.998-0.754c0-0.742-0.617-0.995-1.994-0.995
	c-3.745,0-9.604,0.375-10.473,0.375c-0.758,0-7.617-0.375-13.233-0.375c-1.368,0-1.995,0.253-1.995,0.995
	c0,0.504,0.499,0.754,1,0.754c1.12,0,3.242,0.122,4.238,0.369c4.119,0.875,5.119,2.872,5.369,7.113
	c0.244,3.994,0.244,7.492,0.244,26.95v15.598c0,12.852-1.494,23.458-7.234,30.567c-4.487,5.37-11.977,8.986-19.587,8.986
	c-7.108,0-12.723-1.132-18.837-6.867c-5.359-5.111-9.361-12.851-9.361-30.817v-17.466c0-19.457,0-22.956,0.258-26.949
	c0.246-4.368,1.243-6.613,4.611-7.114c1.496-0.247,2.248-0.368,3.118-0.368c0.504,0,1.001-0.25,1.001-0.754
	c0-0.742-0.622-0.995-1.993-0.995c-3.751,0-11.229,0.374-12.349,0.374c-1.134,0-8.743-0.374-14.358-0.374
	c-1.37,0-1.988,0.253-1.988,0.995c0,0.504,0.493,0.754,0.994,0.754c1.122,0,3.24,0.121,4.237,0.368
	c4.117,0.876,5.127,2.873,5.367,7.114c0.258,3.993,0.258,7.492,0.258,26.949V146.093z M522.969,149.835
	c0,11.977,0,21.831-0.624,27.075c-0.499,3.618-1.122,6.364-3.62,6.864c-1.119,0.246-2.616,0.493-3.741,0.493
	c-0.748,0-0.99,0.378-0.99,0.752c0,0.747,0.612,0.997,1.987,0.997c3.742,0,11.604-0.374,11.732-0.374
	c0.621,0,8.482,0.374,15.346,0.374c1.365,0,1.994-0.374,1.994-0.997c0-0.374-0.253-0.752-0.998-0.752
	c-1.125,0-3.873-0.247-5.614-0.493c-3.742-0.5-4.494-3.246-4.867-6.864c-0.621-5.242-0.621-15.099-0.621-27.075v-2.993
	c0-0.621,0.25-1,0.872-1l15.346,0.249c0.746,0,1.123,0.25,1.617,0.75c2.5,3.246,8.352,11.599,13.602,18.466
	c7.113,9.354,11.479,15.463,16.846,18.341c3.24,1.739,6.367,2.369,13.349,2.369h8.863c2.241,0,2.986-0.25,2.986-0.997
	c0-0.374-0.498-0.752-1.115-0.752c-0.749,0-2.5,0-4.871-0.375c-3.117-0.496-8.483-1.867-15.22-8.979
	c-7.233-7.736-15.721-18.838-25.95-31.94c11.229-10.354,15.096-19.588,15.096-28.82c0-8.609-5.49-14.724-8.605-16.965
	c-6.625-4.743-14.979-5.494-22.835-5.494c-3.873,0-13.354,0.375-14.722,0.375c-0.624,0-8.486-0.375-14.098-0.375
	c-1.372,0-1.997,0.25-1.997,0.996c0,0.504,0.498,0.751,0.996,0.751c1.123,0,3.246,0.125,4.248,0.37
	c4.114,0.876,5.109,2.874,5.357,7.114c0.251,3.994,0.251,7.493,0.251,26.95L522.969,149.835L522.969,149.835L522.969,149.835z
	 M532.953,97.937c0-0.748,0.371-1.251,0.994-1.499c1.248-0.376,4.609-0.75,8.359-0.75c13.353,0,21.582,9.358,21.582,24.952
	c0,9.482-3.244,16.22-7.612,19.214c-2.865,1.999-6.357,2.372-9.354,2.372c-5.489,0-11.229-0.872-13.099-1.996
	c-0.621-0.375-0.871-0.876-0.871-1.496L532.953,97.937L532.953,97.937z M624.347,109.288c3.992,4.491,18.096,20.21,32.563,35.805
	c13.221,14.226,31.188,32.563,32.558,33.813c6.614,6.611,8.111,7.983,9.118,7.983c0.869,0,1.118-0.625,1.118-8.858l0.25-73.112
	c0-7.483,0.496-10.232,4.604-11.105c1.506-0.372,2.381-0.372,3.003-0.372c0.872,0,1.372-0.374,1.372-0.872
	c0-0.749-0.873-0.876-2.247-0.876c-5.113,0-9.229,0.375-10.604,0.375c-1.368,0-7.358-0.375-12.972-0.375
	c-1.494,0-2.497,0.125-2.497,0.876c0,0.495,0.127,0.872,1.003,0.872c0.994,0,3.861,0.125,6.11,0.624
	c3.869,0.999,4.734,3.743,4.868,11.855l1.365,63.375c-3.994-4.112-17.585-19.336-29.943-32.561
	c-19.214-20.584-37.801-40.674-39.673-42.79c-1.247-1.255-3.367-3.995-4.371-3.995c-0.996,0-1.364,1.374-1.364,6.237l-0.136,71.487
	c0,11.36-0.619,14.976-3.73,15.847c-1.88,0.618-4.123,0.747-5.119,0.747c-0.622,0-0.995,0.25-0.995,0.752
	c0,0.87,0.744,0.998,1.989,0.998c5.618,0,10.851-0.375,11.979-0.375c1.121,0,6.109,0.375,13.228,0.375c1.491,0,2.25-0.25,2.25-0.998
	c0-0.502-0.375-0.752-1-0.752c-1.128,0-3.873-0.128-6.24-0.747c-3.374-1.004-4.618-4.243-4.874-14.469L624.347,109.288z
	 M726.896,184.397c5.115,2.493,10.85,3.367,16.716,3.367c6.73,0,13.47-1.5,18.831-5.245c8.615-6.108,10.613-15.585,10.613-20.706
	c0-9.98-3.489-17.713-18.22-29.317l-3.493-2.747c-11.977-9.354-15.223-13.848-15.223-20.959c0-9.109,6.741-14.475,15.348-14.475
	c11.477,0,14.846,5.241,15.602,6.613c0.741,1.377,1.496,4.743,1.621,6.242c0.119,0.994,0.247,1.619,0.994,1.619
	c0.628,0,0.875-0.876,0.875-2.869c0-8.484,0.5-12.599,0.5-13.23c0-0.619-0.25-0.87-1.25-0.87s-2-0.125-4.365-0.62
	c-3.121-0.751-6.736-1.25-11.603-1.25c-15.848,0-25.828,9.105-25.828,22.46c0,8.48,2.99,16.217,16.219,27.074l5.614,4.616
	c10.732,8.858,14.347,13.847,14.347,22.456c0,7.986-5.859,16.592-17.836,16.592c-8.36,0-16.593-3.496-18.468-12.723
	c-0.377-1.75-0.377-3.49-0.377-4.615c0-1-0.125-1.378-0.865-1.378c-0.628,0-0.881,0.621-1.004,1.999
	c-0.118,1.993-0.619,6.984-0.619,13.221C725.026,183.028,725.146,183.52,726.896,184.397"/>
<path fill="#50748A" d="M134.589,0.5C60.538,0.5,0.5,60.534,0.5,134.593c0,74.052,60.032,134.083,134.089,134.083
	c74.052,0,134.088-60.031,134.088-134.083C268.672,60.534,208.641,0.502,134.589,0.5z M80.136,146.708
	c-8.678,9.677-26.109,8.183-38.943-3.324c-4.957-4.444-8.49-9.747-10.478-15.127c-2.758-7.041-8.431-25.452-1.358-44.063
	c1.836-5.421,5.215-10.802,10.038-15.377c12.493-11.864,29.88-13.847,38.83-4.424c8.95,9.421,6.074,26.681-6.427,38.553
	c-0.92,0.879-1.877,1.695-2.852,2.472c1.259,0.883,2.483,1.872,3.681,2.938C85.452,119.865,88.812,137.04,80.136,146.708z
	 M86.298,114.691c-1.292-1.813-2.701-3.567-4.257-5.22c-1.294-1.383-2.632-2.652-3.999-3.81c1.06-0.997,2.097-2.057,3.103-3.197
	c2.148-2.434,4.047-5.044,5.669-7.761c0.104,0,0.203-0.009,0.314-0.009h34.745c0.009,0.029,0.022,0.058,0.04,0.087
	c4.377,0.52,7.799,4.915,7.799,10.264c0,0.181-0.018,0.35-0.026,0.524c0.004,0.009,0.009,0.018,0.013,0.027v72.551
	c0.014-0.042,0.027-0.071,0.04-0.107v19.81l-20.365-21.599v-61.533H87.13C86.845,114.718,86.576,114.707,86.298,114.691z
	 M126.93,246.439c-1.876,2.416-4.31,3.631-7.281,3.631c-3.022,0-5.479-1.225-7.386-3.68c-1.901-2.449-2.847-6.158-2.847-11.111
	v-31.892c-0.027-0.526-0.045-1.073-0.045-1.633v-7.337l20.365,3.743v37.117C129.738,240.285,128.806,244.006,126.93,246.439z
	 M181.357,114.66h-22.236v87.038c0,0.56-0.019,1.102-0.047,1.633v31.883c0,4.962-0.96,8.669-2.854,11.118
	c-1.903,2.452-4.359,3.672-7.377,3.672c-2.98,0-5.412-1.211-7.277-3.629c-1.888-2.432-2.817-6.152-2.817-11.161V177.98
	c0.016,0.031,0.029,0.074,0.042,0.109V105.54c0-0.009,0.005-0.016,0.005-0.024c-0.005-0.176-0.018-0.348-0.018-0.526
	c0-5.35,3.426-9.747,7.803-10.269c0.005-0.027,0.019-0.054,0.031-0.087h34.743c0.114,0,0.219,0.016,0.325,0.016
	c1.618,2.715,3.508,5.323,5.66,7.752c1.002,1.142,2.048,2.202,3.099,3.199c-1.372,1.16-2.706,2.432-4,3.812
	c-1.546,1.66-2.965,3.407-4.257,5.22C181.915,114.645,181.641,114.66,181.357,114.66z M237.773,128.204
	c-1.983,5.376-5.521,10.67-10.479,15.123c-12.823,11.507-30.259,12.997-38.935,3.324c-8.685-9.673-5.325-26.846,7.502-38.354
	c1.188-1.069,2.423-2.048,3.681-2.945c-0.973-0.768-1.927-1.586-2.859-2.467c-12.495-11.864-15.37-29.126-6.418-38.551
	c8.945-9.425,26.332-7.444,38.832,4.421c0.252,0.241,0.486,0.493,0.729,0.736L210.49,89.999l28.833-5.3
	C246.069,103.116,240.506,121.23,237.773,128.204z"/>
<path fill="#E28432" d="M268.359,71.491l-39.566,7.272l27.827-29.512L268.359,71.491z M72.6,179.719l39.566,7.273L84.341,157.48
	L72.6,179.719z"/>
</svg>
